<?xml version="1.0" standalone="no"?>
<!DOCTYPE svg PUBLIC "-//W3C//DTD SVG 20010904//EN"
 "http://www.w3.org/TR/2001/REC-SVG-20010904/DTD/svg10.dtd">
<svg version="1.0" xmlns="http://www.w3.org/2000/svg"
 width="2500.000000pt" height="2000.000000pt" viewBox="0 0 2500.000000 2000.000000"
 preserveAspectRatio="xMidYMid meet">
<metadata>
Created by potrace 1.16, written by Peter Selinger 2001-2019
</metadata>
<g transform="translate(0.000000,2000.000000) scale(0.106883,-0.120992)"
fill="#000000" stroke="none">
<path d="M0 10685 c0 -3215 4 -5845 9 -5845 4 0 23 5 40 11 25 9 35 9 44 -1 9
-10 9 -11 0 -6 -7 4 -13 2 -13 -3 0 -6 -18 -11 -40 -11 l-40 0 0 -820 0 -820
401 0 c334 0 403 -2 415 -14 12 -12 14 -79 14 -400 0 -251 -4 -386 -10 -386
-5 0 -10 -7 -10 -15 0 -13 -52 -15 -405 -15 l-405 0 0 -1180 0 -1180 1915 0
1915 0 0 155 0 155 9780 0 9780 0 0 330 0 330 -180 0 -180 0 0 390 c0 327 -2
390 -14 390 -8 0 -16 7 -20 15 -4 13 -33 15 -183 13 -110 0 -161 -4 -133 -8
l45 -7 -42 -1 c-23 -1 -45 3 -49 9 -3 6 -22 9 -40 7 l-34 -4 0 308 0 308 330
0 330 0 0 -99 c0 -113 -6 -106 103 -110 l67 -2 0 5175 0 5176 -265 0 -265 0 0
1250 0 1250 -220 0 c-189 0 -220 -2 -220 -15 0 -10 -10 -15 -30 -15 -20 0 -30
5 -30 15 0 13 -74 15 -609 15 -532 0 -610 -2 -615 -15 -3 -9 -18 -15 -35 -15
-23 0 -29 4 -25 15 6 14 -62 15 -605 13 l-611 -3 0 278 0 277 40 0 c22 0 40
-4 40 -10 0 -5 14 -10 30 -10 20 0 30 -5 30 -15 0 -8 7 -15 15 -15 8 0 15 -7
15 -15 0 -9 9 -15 25 -15 16 0 25 -6 25 -15 0 -8 7 -15 15 -15 8 0 15 -7 15
-15 0 -10 10 -15 30 -15 17 0 30 -4 30 -10 0 -5 11 -10 25 -10 14 0 25 5 25
10 0 6 7 10 15 10 8 0 15 7 15 15 0 10 10 15 30 15 20 0 30 5 30 15 0 8 5 15
10 15 6 0 10 7 10 15 0 10 10 15 30 15 20 0 30 5 30 15 0 8 7 15 15 15 8 0 15
5 15 10 0 6 25 10 55 10 30 0 55 -4 55 -10 0 -5 7 -10 15 -10 8 0 15 -7 15
-15 0 -9 9 -15 25 -15 16 0 25 -6 25 -15 0 -8 7 -15 15 -15 8 0 15 -7 15 -15
0 -9 9 -15 25 -15 14 0 25 -6 25 -12 0 -15 45 -38 72 -38 10 0 18 5 18 10 0 6
11 10 25 10 16 0 25 6 25 15 0 8 7 15 15 15 8 0 15 8 15 18 0 14 2 15 10 2 6
-10 10 -11 10 -2 0 6 9 12 20 12 11 0 20 6 20 14 0 8 12 17 27 21 21 5 24 8
12 16 -10 6 -7 9 14 9 15 0 27 5 27 10 0 6 25 10 55 10 30 0 55 -4 55 -10 0
-5 7 -10 15 -10 8 0 15 -7 15 -15 0 -9 9 -15 25 -15 16 0 25 -6 25 -15 0 -8 7
-15 15 -15 8 0 15 -7 15 -15 0 -10 10 -15 30 -15 20 0 30 -5 30 -15 0 -8 7
-15 15 -15 8 0 15 -4 15 -10 0 -5 11 -10 25 -10 14 0 25 5 25 10 0 6 14 10 30
10 20 0 30 5 30 15 0 8 5 15 10 15 6 0 10 7 10 15 0 10 10 15 30 15 20 0 30 5
30 15 0 8 7 15 15 15 8 0 15 7 15 15 0 9 9 15 25 15 14 0 25 5 25 10 0 6 6 10
14 10 8 0 16 7 20 15 3 8 17 15 31 15 16 0 25 6 25 15 0 8 5 15 10 15 19 0 10
25 -15 44 -14 11 -25 29 -25 42 0 15 -6 24 -15 24 -9 0 -15 9 -15 25 0 16 -6
25 -15 25 -8 0 -15 7 -15 15 0 9 -9 15 -25 15 -14 0 -25 -4 -25 -10 0 -5 -13
-10 -30 -10 -20 0 -30 -5 -30 -15 0 -8 -7 -15 -15 -15 -8 0 -15 -7 -15 -15 0
-9 -9 -15 -25 -15 -16 0 -25 -6 -25 -15 0 -8 -7 -15 -15 -15 -8 0 -15 -7 -15
-15 0 -8 -7 -15 -15 -15 -8 0 -15 7 -15 15 0 9 -9 15 -25 15 -16 0 -25 6 -25
15 0 8 -7 15 -15 15 -8 0 -15 7 -15 15 0 10 -10 15 -30 15 -16 0 -30 5 -30 11
0 17 -32 38 -57 39 -14 0 -23 6 -23 15 0 8 -9 15 -20 15 -11 0 -23 7 -26 15
-4 8 -12 15 -20 15 -8 0 -14 -7 -14 -15 0 -8 -7 -15 -15 -15 -8 0 -15 -7 -15
-15 0 -9 -10 -15 -26 -15 -26 0 -54 -20 -54 -39 0 -6 -13 -11 -30 -11 -20 0
-30 -5 -30 -15 0 -8 -9 -15 -20 -15 -11 0 -23 -7 -26 -15 -4 -8 -12 -15 -20
-15 -8 0 -14 -7 -14 -15 0 -8 -7 -15 -15 -15 -8 0 -15 7 -15 15 0 9 -9 15 -23
15 -22 0 -57 31 -57 50 0 6 -13 10 -30 10 -20 0 -30 5 -30 15 0 8 -7 15 -15
15 -8 0 -15 5 -15 10 0 6 -11 10 -25 10 -16 0 -25 6 -25 15 0 8 -7 15 -15 15
-8 0 -15 6 -15 14 0 10 -10 14 -30 14 -22 -1 -29 -5 -26 -15 3 -7 -1 -13 -9
-13 -8 0 -15 -7 -15 -15 0 -10 -10 -15 -30 -15 -16 0 -30 -4 -30 -10 0 -5 -7
-10 -15 -10 -8 0 -15 -7 -15 -15 0 -9 -9 -15 -25 -15 -16 0 -25 -6 -25 -15 0
-8 -7 -15 -15 -15 -8 0 -15 -7 -15 -15 0 -10 -10 -15 -30 -15 -20 0 -30 -5
-30 -15 0 -8 -4 -15 -10 -15 -5 0 -10 7 -10 15 0 8 -7 15 -15 15 -8 0 -15 7
-15 15 0 10 -10 15 -30 15 -20 0 -30 5 -30 15 0 8 -7 15 -15 15 -8 0 -14 6
-12 13 1 7 -10 13 -25 15 -16 2 -28 8 -28 13 0 5 -9 9 -20 9 -11 0 -20 7 -20
15 0 8 -9 15 -20 15 -11 0 -20 7 -20 15 0 10 -10 15 -30 15 l-30 0 0 320 0
320 -9930 0 -9930 0 0 -5845z m720 5660 c0 -8 5 -15 11 -15 6 0 16 -6 22 -12
14 -15 18 -58 6 -58 -5 0 -9 -9 -9 -20 0 -11 -7 -20 -15 -20 -8 0 -15 -7 -15
-15 0 -11 -11 -15 -40 -15 -29 0 -40 4 -40 15 0 8 -7 15 -15 15 -12 0 -15 13
-15 55 0 42 3 55 15 55 8 0 15 7 15 15 0 11 11 15 40 15 29 0 40 -4 40 -15z
m1110 0 c0 -8 7 -15 15 -15 12 0 15 -13 15 -55 0 -42 -3 -55 -15 -55 -8 0 -15
-7 -15 -15 0 -11 -11 -15 -40 -15 -29 0 -40 4 -40 15 0 8 -6 15 -14 15 -8 0
-17 15 -20 35 -4 20 -11 33 -16 30 -6 -3 -7 1 -4 9 3 9 10 13 15 10 5 -3 9 2
9 10 0 9 7 16 15 16 8 0 15 7 15 15 0 11 11 15 40 15 29 0 40 -4 40 -15z
m8920 -1220 l0 -375 40 0 c29 0 40 -4 40 -15 0 -8 7 -15 15 -15 11 0 15 -11
15 -40 0 -29 -4 -40 -15 -40 -8 0 -15 -7 -15 -15 0 -12 -14 -15 -70 -15 -39 0
-70 4 -70 10 0 5 -11 12 -25 16 -14 3 -25 12 -25 20 0 8 -7 14 -15 14 -13 0
-15 53 -15 415 l0 415 70 0 70 0 0 -375z m-8926 280 c3 -8 12 -15 21 -15 24 0
21 -94 -5 -120 -40 -40 -119 -19 -120 33 0 9 -6 17 -12 18 -10 0 -10 2 0 6 6
2 12 17 12 33 0 21 6 29 25 34 14 4 23 11 20 16 -4 6 7 10 23 10 17 0 32 -6
36 -15z m7896 -55 l0 -70 55 0 c42 0 55 -3 55 -15 0 -8 7 -15 15 -15 11 0 15
-11 15 -40 0 -43 3 -41 -77 -42 -21 0 -33 -6 -33 -14 0 -8 -7 -14 -15 -14 -13
0 -15 -28 -15 -195 l0 -195 55 0 c42 0 55 -3 55 -15 0 -8 7 -15 15 -15 11 0
15 -11 15 -40 0 -29 -4 -40 -15 -40 -8 0 -15 -7 -15 -15 0 -12 -16 -15 -80
-15 -64 0 -80 3 -80 15 0 10 -10 15 -30 15 -25 0 -30 4 -30 25 0 15 -5 24 -12
23 -10 -2 -14 49 -16 225 -3 247 -5 257 -56 257 -25 0 -26 3 -26 55 l0 55 40
0 40 0 0 70 0 70 70 0 70 0 0 -70z m606 -85 c4 -9 19 -15 35 -15 19 0 29 -5
29 -15 0 -8 7 -15 15 -15 8 0 15 -5 15 -11 0 -6 6 -17 14 -25 8 -8 19 -14 25
-14 6 0 11 -13 11 -30 0 -20 5 -30 15 -30 11 0 15 -13 15 -54 0 -32 5 -56 11
-58 16 -5 17 -78 2 -78 -7 0 -13 -7 -13 -15 0 -13 -31 -15 -220 -15 l-220 0 0
-26 c0 -26 48 -84 69 -84 6 0 11 -7 11 -15 0 -12 17 -15 95 -15 78 0 95 3 95
15 0 9 9 15 24 15 13 0 26 7 30 15 3 8 17 15 31 15 16 0 25 -6 25 -15 0 -8 7
-15 15 -15 8 0 15 -7 15 -15 0 -8 7 -15 15 -15 8 0 15 -7 15 -15 0 -8 -7 -15
-15 -15 -8 0 -15 -7 -15 -15 0 -8 -7 -15 -15 -15 -8 0 -15 -4 -15 -10 0 -5 -7
-10 -15 -10 -8 0 -14 -6 -12 -12 1 -8 -12 -14 -36 -16 -22 -2 -41 -10 -44 -18
-8 -21 -191 -20 -199 1 -4 9 -19 15 -40 15 -24 0 -34 5 -34 15 0 8 -7 15 -15
15 -8 0 -15 5 -15 10 0 6 -7 10 -15 10 -8 0 -15 7 -15 15 0 8 -7 15 -15 15 -8
0 -15 7 -15 15 0 8 -7 15 -15 15 -10 0 -15 10 -15 30 0 17 -4 30 -10 30 -6 0
-10 52 -10 135 0 83 4 135 10 135 6 0 10 14 10 30 0 20 5 30 15 30 8 0 15 7
15 15 0 8 7 15 15 15 8 0 15 5 15 10 0 6 7 10 15 10 8 0 15 7 15 15 0 8 7 15
15 15 8 0 15 7 15 15 0 9 9 15 25 15 14 0 28 7 31 15 5 12 26 15 105 15 79 0
101 -3 105 -15z m978 0 c3 -8 17 -15 31 -15 16 0 25 -6 25 -15 0 -8 7 -15 15
-15 8 0 15 -7 15 -15 0 -8 5 -15 11 -15 19 0 39 -28 39 -54 0 -16 6 -26 15
-26 11 0 15 -13 15 -54 0 -39 4 -55 15 -60 9 -3 15 -19 15 -41 0 -24 -4 -35
-15 -35 -8 0 -15 -7 -15 -15 0 -13 -31 -15 -220 -15 l-220 0 0 -30 c0 -16 5
-30 11 -30 6 0 17 -6 25 -14 8 -8 14 -19 14 -25 0 -6 7 -11 15 -11 8 0 15 -7
15 -15 0 -12 18 -15 100 -15 82 0 100 3 100 15 0 9 9 15 25 15 16 0 25 6 25
15 0 10 10 15 30 15 20 0 30 -5 30 -15 0 -8 5 -15 10 -15 6 0 10 -7 10 -15 0
-8 7 -15 15 -15 8 0 15 -7 15 -15 0 -8 -7 -15 -15 -15 -8 0 -15 -5 -15 -11 0
-14 -25 -39 -39 -39 -6 0 -11 -7 -11 -15 0 -10 -10 -15 -30 -15 -16 0 -30 -5
-30 -11 0 -5 -4 -7 -10 -4 -5 3 -10 1 -10 -4 0 -7 -36 -11 -100 -11 -82 0
-100 3 -100 15 0 11 -11 15 -40 15 -29 0 -40 4 -40 15 0 8 -7 15 -15 15 -8 0
-15 5 -15 10 0 6 -7 10 -15 10 -8 0 -15 7 -15 15 0 8 -7 15 -15 15 -8 0 -15 7
-15 15 0 8 -4 15 -10 15 -5 0 -10 14 -10 30 0 20 -5 30 -15 30 -13 0 -15 21
-15 125 0 112 2 125 18 125 14 0 15 2 2 10 -10 6 -11 10 -2 10 6 0 12 11 12
25 0 14 5 25 10 25 6 0 10 9 10 20 0 11 7 20 15 20 8 0 15 5 15 10 0 6 7 10
15 10 8 0 15 7 15 15 0 8 7 15 15 15 8 0 15 7 15 15 0 14 31 21 69 15 9 -1 12
4 8 14 -6 14 7 16 92 16 79 0 100 -3 105 -15z m722 0 c4 -8 13 -15 20 -15 8 0
17 -7 20 -15 4 -8 15 -15 25 -15 10 0 19 -6 19 -14 0 -8 7 -16 15 -20 8 -3 15
-15 15 -26 0 -11 7 -20 15 -20 11 0 15 -11 15 -40 0 -38 -2 -40 -30 -40 -16 0
-30 -5 -30 -11 0 -6 -7 -9 -15 -5 -8 3 -15 1 -15 -4 0 -6 -4 -10 -10 -10 -5 0
-10 11 -10 25 0 16 -6 25 -15 25 -8 0 -15 7 -15 15 0 8 -7 15 -15 15 -8 0 -15
7 -15 15 0 11 -11 15 -40 15 -22 0 -40 5 -40 10 0 6 -7 10 -15 10 -8 0 -15 -4
-15 -10 0 -5 -18 -10 -40 -10 -29 0 -40 -4 -40 -15 0 -8 -7 -15 -15 -15 -8 0
-15 -7 -15 -15 0 -8 -7 -15 -15 -15 -9 0 -15 -9 -15 -25 0 -16 -6 -25 -15 -25
-12 0 -15 -16 -15 -85 0 -69 3 -85 15 -85 9 0 15 -9 15 -25 0 -16 6 -25 15
-25 8 0 15 -7 15 -15 0 -8 7 -15 15 -15 8 0 15 -7 15 -15 0 -11 11 -15 40 -15
30 0 40 -4 40 -16 0 -10 7 -14 18 -12 9 2 16 10 15 16 -2 8 11 12 37 12 29 0
40 4 40 15 0 8 7 15 15 15 8 0 15 7 15 15 0 8 7 15 15 15 8 0 15 5 15 10 0 6
11 10 25 10 14 0 25 -4 25 -9 0 -5 12 -11 28 -13 23 -3 27 -8 30 -40 2 -29 0
-38 -12 -38 -9 0 -16 -9 -16 -20 0 -11 -7 -20 -15 -20 -8 0 -15 -4 -15 -10 0
-5 -11 -10 -25 -10 -16 0 -25 -6 -25 -15 0 -10 -10 -15 -30 -15 -20 0 -30 -5
-30 -15 0 -12 -19 -15 -110 -15 -91 0 -110 3 -110 15 0 10 -10 15 -30 15 -20
0 -30 5 -30 15 0 8 -5 15 -11 15 -6 0 -17 6 -25 14 -8 8 -14 19 -14 25 0 6 -7
11 -15 11 -8 0 -15 7 -15 15 0 8 -7 15 -15 15 -11 0 -15 11 -15 40 0 29 -4 40
-15 40 -12 0 -15 19 -15 115 0 96 3 115 15 115 10 0 15 10 15 30 0 22 4 28 15
24 8 -4 15 -1 15 5 0 6 -6 11 -12 12 -10 0 -10 2 0 6 6 2 12 11 12 19 0 8 5
14 11 14 6 0 17 6 25 14 8 8 14 19 14 25 0 6 7 11 15 11 8 0 15 7 15 15 0 10
10 15 30 15 20 0 30 5 30 15 0 13 20 15 120 15 98 0 122 -3 126 -15z m664 1
c0 -10 14 -16 43 -18 38 -3 42 -6 45 -30 2 -16 8 -28 13 -28 14 0 39 -26 39
-39 0 -6 7 -11 15 -11 10 0 15 -10 15 -30 0 -20 5 -30 15 -30 9 0 15 -9 15
-25 0 -24 -2 -25 -70 -25 -56 0 -70 3 -70 15 0 8 -4 15 -9 15 -5 0 -23 14 -40
31 -17 17 -31 35 -31 40 0 5 -38 9 -84 9 -65 0 -85 -3 -90 -15 -3 -8 -17 -15
-31 -15 -14 0 -25 -5 -25 -11 0 -6 -6 -17 -14 -25 -8 -8 -19 -14 -25 -14 -6 0
-11 -7 -11 -15 0 -12 -14 -15 -70 -15 -64 0 -70 2 -70 20 0 11 7 23 15 26 8 4
15 17 15 30 0 14 7 27 15 30 8 4 15 10 15 16 0 13 26 38 39 38 6 0 11 7 11 15
0 8 7 15 15 15 8 0 15 7 15 15 0 9 9 15 24 15 13 0 26 7 30 15 8 22 246 22
246 1z m420 -1 c0 -8 7 -15 15 -15 10 0 15 -10 15 -30 0 -20 5 -30 15 -30 8 0
15 7 15 15 0 8 5 15 10 15 6 0 10 7 10 15 0 13 18 20 43 16 4 0 7 6 7 14 0 12
17 15 90 15 73 0 90 -3 90 -15 0 -9 9 -15 25 -15 16 0 25 -6 25 -15 0 -8 6
-15 13 -15 8 0 7 -4 -3 -10 -13 -8 -12 -10 3 -10 9 0 17 -7 17 -15 0 -10 10
-15 28 -15 25 0 31 6 42 40 11 34 17 40 42 40 18 0 28 5 28 15 0 12 17 15 95
15 78 0 95 -3 95 -15 0 -8 4 -15 10 -15 15 0 50 -33 50 -47 0 -7 7 -13 15 -13
8 0 15 -9 15 -20 0 -11 5 -20 10 -20 6 0 10 -92 10 -255 l0 -255 -65 0 -65 0
0 235 c0 202 -2 235 -15 235 -8 0 -15 7 -15 15 0 8 -9 15 -20 15 -13 0 -18 5
-14 15 5 12 -4 15 -50 15 -43 0 -56 -3 -56 -15 0 -8 -7 -15 -15 -15 -8 0 -15
-7 -15 -15 0 -8 -7 -15 -15 -15 -8 0 -15 -7 -15 -15 0 -8 -4 -15 -10 -15 -6 0
-10 -80 -10 -220 l0 -220 -30 0 c-20 0 -30 -5 -30 -15 0 -10 -10 -15 -30 -15
-20 0 -30 5 -30 15 0 8 -4 15 -10 15 -6 0 -10 75 -10 204 0 172 -2 205 -15
210 -8 3 -15 17 -15 31 0 16 -6 25 -15 25 -8 0 -15 7 -15 15 0 8 -7 15 -15 15
-8 0 -15 7 -15 15 0 11 -11 15 -40 15 -29 0 -40 -4 -40 -15 0 -10 -10 -15 -30
-15 -20 0 -30 -5 -30 -15 0 -8 -4 -15 -10 -15 -5 0 -10 -11 -10 -25 0 -16 -6
-25 -15 -25 -13 0 -15 -30 -15 -210 l0 -210 -70 0 -70 0 0 305 c0 264 2 305
15 305 8 0 15 7 15 15 0 11 11 15 40 15 29 0 40 -4 40 -15z m-754 -310 c4 -8
12 -15 20 -15 10 0 14 -12 14 -40 0 -29 4 -40 15 -40 9 0 15 -9 15 -25 0 -18
5 -25 19 -25 10 0 24 -7 31 -15 7 -8 16 -12 21 -9 5 3 9 -4 9 -15 0 -19 6 -21
80 -21 64 0 80 3 80 15 0 8 7 15 15 15 8 0 15 7 15 15 0 8 7 15 15 15 8 0 15
5 15 10 0 6 7 10 15 10 11 0 15 12 15 45 0 32 4 45 14 45 8 0 16 10 18 23 3
20 8 22 53 18 28 -1 52 -5 54 -7 2 -2 3 -34 2 -71 -1 -46 -7 -72 -16 -79 -8
-6 -15 -21 -15 -33 0 -11 -6 -21 -13 -21 -6 0 -18 -13 -25 -30 -8 -16 -20 -30
-28 -30 -8 0 -14 -4 -14 -10 0 -5 -7 -10 -15 -10 -8 0 -15 -7 -15 -15 0 -10
-10 -15 -30 -15 -19 0 -30 -5 -30 -14 0 -11 -24 -14 -110 -15 -93 -2 -110 0
-110 14 0 11 -11 15 -40 15 -29 0 -40 4 -40 15 0 8 -7 15 -15 15 -8 0 -15 5
-15 10 0 6 -7 10 -15 10 -8 0 -15 7 -15 15 0 8 -4 15 -10 15 -5 0 -10 6 -10
14 0 8 -7 16 -15 20 -9 3 -15 19 -15 41 0 24 -4 35 -15 35 -12 0 -15 13 -15
61 0 38 4 58 10 54 6 -3 16 0 23 7 20 19 66 21 73 3z m-10504 -529 c4 -6 8
-35 8 -63 0 -46 -3 -53 -20 -53 -11 0 -20 -7 -20 -15 0 -9 -9 -15 -24 -15 -13
0 -26 7 -30 15 -3 8 -15 15 -26 15 -16 0 -20 7 -20 30 0 17 -5 29 -11 28 -6
-2 -14 3 -16 10 -3 6 2 12 11 12 11 0 16 9 16 26 0 25 1 25 63 23 34 -1 65 -7
69 -13z m-1122 -943 c11 -10 20 -21 20 -26 0 -5 7 -15 15 -23 14 -15 11 -44
-6 -44 -5 0 -9 -7 -9 -15 0 -8 -7 -15 -15 -15 -8 0 -15 -7 -15 -15 0 -11 -11
-15 -40 -15 -29 0 -40 4 -40 15 0 8 -7 15 -15 15 -12 0 -15 13 -15 55 0 42 3
55 15 55 8 0 15 7 15 15 0 21 64 20 90 -2z m1100 2 c0 -8 7 -15 15 -15 12 0
15 -13 15 -55 0 -42 -3 -55 -15 -55 -8 0 -15 -7 -15 -15 0 -11 -11 -15 -40
-15 -29 0 -40 4 -40 15 0 8 -7 15 -15 15 -26 0 -25 89 2 118 22 25 93 30 93 7z
m10356 0 c-5 -13 51 -15 469 -15 430 0 510 4 463 23 -8 3 -6 6 5 6 9 1 17 -6
17 -14 0 -13 303 -15 2693 -15 1480 0 3175 0 3765 0 l1072 0 0 -4817 c0 -3114
-4 -4813 -10 -4803 -8 13 -10 12 -10 -2 0 -17 -20 -18 -285 -18 l-285 0 0
-205 0 -205 -8602 -1 c-8943 -1 -8665 -1 -8685 0 -10 1 -13 935 -13 4636 l0
4635 390 0 390 0 0 390 0 390 4305 0 c3820 0 4305 2 4305 15 0 8 5 15 11 15 6
0 9 -7 5 -15z m-8936 -165 c0 -5 7 -10 15 -10 8 0 15 -7 15 -15 0 -8 7 -15 15
-15 12 0 15 -13 15 -55 0 -42 -3 -55 -15 -55 -8 0 -15 -7 -15 -15 0 -8 -7 -15
-15 -15 -8 0 -15 -7 -15 -15 0 -10 -10 -15 -30 -15 -20 0 -30 -5 -30 -15 0 -9
-9 -15 -25 -15 -16 0 -25 6 -25 15 0 10 -10 15 -30 15 -19 0 -30 5 -30 14 0
18 18 24 54 17 16 -3 49 -4 73 -2 38 3 43 6 43 27 0 15 6 24 15 24 10 0 15 10
15 30 0 20 -5 30 -15 30 -8 0 -15 7 -15 15 0 8 -7 15 -15 15 -8 0 -15 7 -15
15 0 12 -13 15 -55 15 -42 0 -55 -3 -55 -15 0 -8 -7 -15 -15 -15 -8 0 -15 -7
-15 -15 0 -8 -4 -15 -10 -15 -5 0 -10 -13 -10 -30 0 -16 5 -30 10 -30 6 0 10
-7 10 -15 0 -9 6 -12 18 -8 14 5 13 3 -3 -10 -25 -21 -35 -21 -35 -2 0 8 -7
15 -15 15 -12 0 -15 13 -15 55 0 42 3 55 15 55 8 0 15 5 15 10 0 29 27 39 108
40 48 0 82 -4 82 -10z m-30 -275 c0 -10 10 -15 30 -15 20 0 30 -5 30 -15 0
-13 18 -20 43 -16 4 0 7 -10 7 -24 0 -14 7 -28 15 -31 17 -7 20 -24 4 -24 -14
0 -39 25 -39 39 0 6 -7 11 -15 11 -8 0 -15 7 -15 15 0 11 -11 15 -40 15 -27 0
-43 5 -46 15 -7 18 -65 21 -61 3 1 -8 -12 -14 -35 -16 -25 -2 -38 -8 -38 -18
0 -8 -7 -14 -15 -14 -8 0 -15 -7 -15 -15 0 -8 -7 -15 -15 -15 -8 0 -15 -4 -15
-10 0 -5 -7 -10 -15 -10 -9 0 -15 9 -15 25 0 16 6 25 15 25 8 0 15 7 15 15 0
8 6 15 14 15 8 0 16 7 20 15 3 8 17 15 30 15 18 0 24 4 20 15 -5 12 6 15 65
15 56 0 71 -3 71 -15z m-2500 -500 c0 -8 7 -15 15 -15 8 0 15 -9 15 -20 0 -11
6 -20 13 -20 8 0 7 -4 -3 -10 -10 -6 -11 -10 -2 -10 6 0 12 -5 12 -11 0 -14
-25 -39 -39 -39 -6 0 -11 -7 -11 -15 0 -11 -11 -15 -40 -15 -29 0 -40 4 -40
15 0 8 -6 15 -14 15 -17 0 -22 21 -18 72 3 24 9 38 18 38 8 0 14 7 14 15 0 11
11 15 40 15 29 0 40 -4 40 -15z m1104 0 c12 -12 49 -15 205 -15 l191 0 -2
-417 -3 -418 -404 -3 c-317 -2 -406 1 -413 10 -4 7 -8 190 -8 406 0 342 2 392
15 392 8 0 15 7 15 15 0 13 25 15 164 15 136 0 165 3 170 15 3 8 16 15 30 15
14 0 31 -7 40 -15z m-1050 -947 c-3 -4 3 -11 13 -15 10 -4 24 -12 31 -19 14
-15 16 -94 2 -94 -5 0 -10 -7 -10 -15 0 -8 -9 -15 -19 -15 -11 0 -23 -4 -26
-10 -3 -5 -16 -10 -28 -10 -18 0 -19 2 -7 10 12 8 10 10 -11 10 -34 0 -51 34
-47 91 2 37 7 45 26 47 12 2 22 10 22 17 0 9 11 13 30 13 16 -1 27 -5 24 -10z
m1106 2 c0 -6 8 -14 18 -17 9 -4 23 -12 30 -19 14 -15 16 -94 2 -94 -5 0 -10
-7 -10 -15 0 -8 -9 -15 -20 -15 -11 0 -20 -4 -20 -10 0 -5 -9 -10 -20 -10 -11
0 -20 5 -20 10 0 6 -4 10 -10 10 -24 0 -50 41 -50 80 0 35 4 43 28 53 16 7 27
18 25 25 -3 7 5 12 21 12 14 0 26 -5 26 -10z m-1070 -975 c0 -8 5 -15 10 -15
14 0 13 -63 -2 -95 -6 -14 -17 -25 -25 -25 -7 0 -13 -4 -13 -10 0 -5 -16 -10
-35 -10 -50 0 -75 31 -75 92 0 26 5 48 10 48 6 0 10 7 10 15 0 12 13 15 60 15
47 0 60 -3 60 -15z m1110 0 c0 -8 5 -15 10 -15 6 0 10 -18 10 -40 0 -22 -4
-40 -10 -40 -5 0 -10 -7 -10 -16 0 -27 -27 -44 -69 -44 -30 0 -41 4 -41 15 0
8 -7 15 -15 15 -12 0 -15 13 -15 55 0 42 3 55 15 55 8 0 15 7 15 15 0 12 13
15 55 15 42 0 55 -3 55 -15z m690 -4690 c0 -789 -3 -995 -12 -995 -9 0 -8 -4
2 -11 12 -8 12 -10 1 -7 -18 5 -25 47 -10 64 8 10 8 14 0 14 -8 0 -11 252 -11
943 0 518 3 952 6 965 4 12 10 22 15 22 5 0 9 -426 9 -995z m10700 -3700 c0
-8 5 -15 10 -15 6 0 10 -108 10 -305 0 -197 -4 -305 -10 -305 -5 0 -10 -16
-10 -35 0 -24 -5 -35 -15 -35 -8 0 -15 -9 -15 -20 0 -11 -7 -20 -15 -20 -8 0
-15 -7 -15 -15 0 -8 -7 -15 -15 -15 -8 0 -15 -7 -15 -15 0 -8 -7 -15 -15 -15
-8 0 -15 -4 -15 -10 0 -5 -11 -10 -25 -10 -16 0 -25 -6 -25 -15 0 -12 -18 -15
-105 -15 -85 0 -107 3 -111 15 -4 8 -12 15 -20 15 -8 0 -14 5 -14 10 0 6 -12
10 -27 10 -29 0 -53 33 -53 72 0 10 -7 18 -15 18 -9 0 -15 9 -15 25 0 16 -6
25 -15 25 -12 0 -15 18 -15 104 0 80 4 108 15 120 8 8 15 24 15 35 0 12 6 21
15 21 8 0 15 7 15 15 0 8 5 15 10 15 6 0 10 7 10 15 0 8 7 15 15 15 8 0 15 5
15 10 0 6 7 10 15 10 8 0 15 7 15 15 0 9 9 15 25 15 16 0 25 6 25 15 0 12 15
15 73 15 75 0 97 -9 97 -42 0 -10 7 -18 15 -18 11 0 15 -11 15 -40 0 -29 -4
-40 -15 -40 -8 0 -15 -7 -15 -15 0 -11 -12 -15 -46 -15 -68 0 -124 -19 -124
-42 0 -11 -4 -16 -10 -13 -6 4 -10 -25 -10 -79 0 -51 4 -86 10 -86 6 0 10 -7
10 -15 0 -8 7 -15 15 -15 8 0 15 -4 15 -10 0 -14 111 -12 143 3 18 8 27 20 27
35 0 12 7 25 15 28 13 5 15 47 15 295 0 186 4 289 10 289 6 0 10 7 10 15 0 12
13 15 60 15 47 0 60 -3 60 -15z m250 0 c0 -8 5 -15 10 -15 6 0 10 -30 10 -70
l0 -70 -70 0 c-56 0 -70 3 -70 15 0 8 -4 15 -10 15 -5 0 -10 24 -10 54 0 40 4
55 16 60 8 3 12 10 9 16 -4 6 16 10 54 10 48 0 61 -3 61 -15z m910 0 c0 -8 7
-15 15 -15 12 0 15 -14 15 -70 l0 -70 -70 0 -70 0 0 70 c0 56 3 70 15 70 8 0
15 7 15 15 0 11 11 15 40 15 29 0 40 -4 40 -15z m1607 -7 c1 -13 9 -28 18 -34
13 -10 15 -59 15 -383 0 -321 -2 -372 -15 -377 -8 -4 -15 -15 -15 -25 0 -16
-8 -19 -55 -19 -42 0 -55 3 -55 15 0 8 -5 15 -11 15 -5 0 -7 -5 -3 -12 4 -7 3
-8 -4 -4 -9 5 -12 117 -12 412 0 352 2 404 15 404 8 0 15 7 15 15 0 11 13 15
53 15 47 0 53 -2 54 -22z m-547 -48 c0 -5 18 -10 40 -10 29 0 40 -4 40 -15 0
-10 10 -15 30 -15 20 0 30 -5 30 -15 0 -8 9 -15 20 -15 11 0 23 -7 26 -15 4
-8 12 -15 20 -15 8 0 14 -4 14 -10 0 -5 7 -10 15 -10 9 0 15 -9 15 -25 0 -16
6 -25 15 -25 8 0 15 -9 15 -20 0 -11 5 -20 10 -20 6 0 10 -18 10 -40 0 -29 4
-40 15 -40 12 0 15 -18 15 -99 0 -79 -3 -100 -15 -105 -9 -3 -15 -19 -15 -41
0 -19 -4 -35 -10 -35 -5 0 -10 -11 -10 -25 0 -16 -6 -25 -15 -25 -8 0 -15 -7
-15 -15 0 -8 -7 -15 -15 -15 -8 0 -15 -7 -15 -15 0 -8 -7 -15 -15 -15 -8 0
-15 -7 -15 -15 0 -9 -9 -15 -25 -15 -16 0 -25 -6 -25 -15 0 -12 -14 -15 -70
-15 -56 0 -70 3 -70 15 0 8 -7 15 -15 15 -13 0 -15 24 -15 155 0 131 -2 155
-15 155 -8 0 -15 7 -15 15 0 12 -13 15 -55 15 -40 0 -55 -4 -55 -14 0 -8 -7
-16 -15 -20 -11 -4 -15 -21 -15 -63 0 -50 4 -60 27 -80 14 -13 39 -23 55 -23
18 0 28 -5 28 -15 0 -8 7 -15 15 -15 11 0 15 -11 15 -40 0 -29 -4 -40 -15 -40
-8 0 -15 -7 -15 -15 0 -12 -13 -15 -55 -15 -30 0 -55 4 -55 10 0 5 -11 12 -25
16 -14 3 -25 12 -25 20 0 8 -7 14 -15 14 -8 0 -15 7 -15 15 0 8 -7 15 -15 15
-9 0 -15 9 -15 25 0 16 -6 25 -15 25 -12 0 -15 18 -15 100 0 82 3 100 15 100
9 0 15 9 15 25 0 16 6 25 15 25 8 0 15 7 15 15 0 8 7 15 15 15 8 0 15 7 15 15
0 9 9 15 25 15 14 0 25 5 25 10 0 6 35 10 84 10 47 0 88 -4 91 -10 3 -5 17
-10 31 -10 15 0 24 -6 24 -15 0 -8 5 -15 10 -15 6 0 10 -7 10 -15 0 -8 7 -15
15 -15 8 0 15 -7 15 -15 0 -8 7 -15 15 -15 12 0 15 -19 15 -109 0 -78 4 -110
13 -113 20 -8 37 2 37 23 0 11 7 22 15 25 12 5 15 27 15 110 0 84 -3 106 -15
110 -8 4 -15 17 -15 30 0 13 -4 24 -10 24 -5 0 -10 9 -10 20 0 11 -7 20 -15
20 -8 0 -15 7 -15 15 0 8 -7 15 -15 15 -8 0 -15 7 -15 15 0 11 -11 15 -37 15
-25 0 -33 3 -25 9 24 15 -14 21 -129 21 -90 0 -109 -3 -109 -15 0 -10 -10 -15
-30 -15 -20 0 -30 -5 -30 -15 0 -10 -10 -15 -31 -15 -18 0 -28 -4 -24 -10 3
-6 -1 -13 -9 -16 -9 -3 -16 -17 -16 -30 0 -15 -6 -24 -15 -24 -8 0 -15 -7 -15
-15 0 -8 -7 -15 -15 -15 -11 0 -15 -11 -15 -36 0 -19 -7 -42 -15 -50 -10 -11
-15 -37 -15 -85 0 -49 5 -75 15 -85 8 -9 15 -29 15 -45 0 -19 5 -29 15 -29 10
0 15 -10 15 -30 0 -20 5 -30 15 -30 8 0 15 -7 15 -15 0 -8 5 -15 10 -15 6 0
10 -7 10 -15 0 -8 6 -15 14 -15 8 0 16 -4 18 -10 2 -5 15 -11 31 -12 18 -2 26
-7 23 -15 -4 -9 4 -13 24 -13 20 0 30 -5 30 -15 0 -13 24 -15 155 -15 131 0
155 2 155 15 0 12 13 15 55 15 42 0 55 -3 55 -15 0 -8 7 -15 15 -15 8 0 15 -7
15 -15 0 -8 -7 -15 -15 -15 -8 0 -15 -4 -15 -10 0 -5 -7 -10 -15 -10 -8 0 -15
-7 -15 -15 0 -9 -9 -15 -25 -15 -17 0 -25 -6 -25 -17 0 -15 -2 -16 -10 -3 -6
10 -10 11 -10 3 0 -9 -19 -13 -60 -13 -47 0 -60 -3 -60 -15 0 -12 -13 -15 -55
-15 -32 0 -55 4 -55 11 0 5 -4 8 -9 4 -5 -3 -12 -1 -16 5 -3 5 -31 10 -61 10
-41 0 -54 4 -54 15 0 11 -12 15 -45 15 -25 0 -45 5 -45 11 0 19 -28 39 -54 39
-16 0 -26 6 -26 15 0 8 -7 15 -15 15 -8 0 -15 7 -15 15 0 8 -4 15 -9 15 -5 0
-12 11 -15 25 -4 14 -11 23 -16 20 -6 -3 -10 3 -10 14 0 12 -7 21 -15 21 -10
0 -15 10 -15 30 0 20 -5 30 -15 30 -12 0 -15 13 -15 55 0 42 -3 55 -15 55 -12
0 -15 16 -15 85 0 69 3 85 15 85 12 0 15 13 15 55 0 42 3 55 15 55 9 0 15 9
15 25 0 16 6 25 15 25 8 0 15 7 15 15 0 8 4 15 10 15 5 0 13 12 16 27 10 37
27 53 58 53 16 0 26 6 26 15 0 8 7 15 15 15 8 0 15 7 15 15 0 10 10 15 31 15
16 0 28 4 25 9 -8 12 19 21 65 21 21 0 39 5 39 10 0 6 40 10 100 10 60 0 100
-4 100 -10z m-780 -105 c0 -49 4 -67 15 -71 8 -4 15 -12 15 -20 0 -10 12 -14
40 -14 l40 0 0 -70 0 -70 -40 0 c-22 0 -40 -4 -40 -10 0 -5 -7 -10 -15 -10
-12 0 -15 -18 -15 -100 0 -82 3 -100 15 -100 9 0 15 -9 15 -25 0 -22 4 -25 40
-25 l40 0 0 -85 0 -85 -70 0 c-56 0 -70 3 -70 15 0 9 -9 15 -25 15 -14 0 -25
5 -25 10 0 6 -7 10 -15 10 -8 0 -15 6 -15 14 0 7 -7 19 -15 26 -13 11 -15 61
-15 336 l0 324 70 0 70 0 0 -65z m-3830 20 c0 -9 9 -15 25 -15 14 0 25 -4 25
-10 0 -5 7 -10 15 -10 11 0 15 -11 15 -40 0 -27 5 -43 15 -46 13 -5 15 -38 15
-209 0 -171 -2 -204 -15 -209 -11 -4 -15 -21 -15 -61 0 -34 -4 -55 -11 -55
-17 0 -49 -40 -49 -62 0 -10 -7 -18 -15 -18 -9 0 -12 -6 -9 -15 5 -11 -1 -15
-25 -15 -17 0 -31 -4 -31 -10 0 -5 -12 -10 -26 -10 -14 0 -32 -7 -40 -15 -13
-13 -59 -15 -285 -15 -199 0 -268 3 -266 12 1 6 -9 14 -23 18 l-25 6 -3 357
c-2 313 0 357 13 357 8 0 15 7 15 15 0 8 7 15 15 15 8 0 15 5 15 10 0 6 6 10
14 10 8 0 16 7 20 15 5 13 50 15 321 15 273 0 315 -2 315 -15z m3116 -104 c-7
-11 17 -21 50 -21 15 0 24 -6 24 -15 0 -8 7 -15 15 -15 8 0 15 -4 15 -10 0 -5
7 -10 15 -10 8 0 15 -7 15 -15 0 -8 5 -15 10 -15 6 0 10 -7 10 -15 0 -8 7 -15
15 -15 11 0 15 -11 15 -41 0 -32 3 -40 15 -35 13 5 15 -22 15 -208 0 -181 -2
-215 -15 -220 -9 -3 -15 -19 -15 -41 0 -24 -4 -35 -15 -35 -10 0 -15 -10 -15
-30 0 -16 -4 -30 -10 -30 -5 0 -10 -7 -10 -15 0 -10 -10 -15 -30 -15 -16 0
-30 -4 -30 -10 0 -5 -11 -10 -25 -10 -16 0 -25 -6 -25 -15 0 -13 -21 -15 -125
-15 -104 0 -125 2 -125 15 0 10 -10 15 -30 15 l-30 0 0 70 c0 60 3 70 18 71 9
0 72 0 140 -1 79 -1 122 3 122 9 0 6 7 11 15 11 8 0 15 7 15 15 0 8 5 15 10
15 6 0 10 77 10 210 0 133 -4 210 -10 210 -5 0 -10 7 -10 15 0 8 -7 15 -15 15
-8 0 -15 5 -15 10 0 6 -30 10 -70 10 -40 0 -70 -4 -70 -10 0 -5 -7 -10 -15
-10 -8 0 -15 -7 -15 -15 0 -8 -7 -15 -15 -15 -12 0 -15 -14 -15 -70 0 -56 3
-70 15 -70 8 0 15 -7 15 -15 0 -9 7 -18 15 -21 8 -4 12 -10 9 -15 -5 -9 37
-13 109 -9 21 1 37 -3 37 -9 0 -6 7 -11 15 -11 12 0 15 -13 15 -60 0 -47 -3
-60 -15 -60 -8 0 -15 -4 -15 -10 0 -5 -11 -10 -24 -10 -13 0 -26 -7 -30 -15
-3 -8 -12 -15 -20 -15 -8 0 -21 7 -30 15 -9 9 -33 15 -61 15 -28 0 -44 4 -40
10 4 6 -5 10 -19 10 -16 0 -26 6 -26 15 0 8 -7 15 -15 15 -8 0 -15 7 -15 15 0
8 -7 15 -15 15 -10 0 -15 10 -15 28 0 20 -3 23 -10 12 -7 -11 -11 -4 -16 28
-4 23 -10 42 -15 42 -12 0 -11 167 1 175 6 3 10 22 10 41 0 24 5 34 15 34 8 0
15 7 15 15 0 8 7 15 15 15 8 0 15 7 15 15 0 8 7 15 15 15 8 0 15 5 15 10 0 6
7 10 15 10 8 0 15 7 15 15 0 9 9 15 25 15 16 0 25 6 25 15 0 12 17 15 91 15
50 0 88 -4 85 -9z m2528 -6 c3 -9 19 -15 41 -15 22 0 35 -5 35 -13 0 -12 56
-41 73 -38 4 0 7 -13 7 -29 0 -20 5 -30 15 -30 9 0 15 -9 15 -25 0 -16 -6 -25
-15 -25 -8 0 -15 -7 -15 -15 0 -8 -7 -15 -15 -15 -8 0 -15 -7 -15 -15 0 -9 -9
-15 -25 -15 -16 0 -25 -6 -25 -15 0 -8 -7 -15 -15 -15 -8 0 -15 -7 -15 -15 0
-8 -7 -15 -15 -15 -8 0 -15 -4 -15 -10 0 -5 -11 -10 -25 -10 -16 0 -25 -6 -25
-15 0 -8 -7 -15 -15 -15 -8 0 -15 -7 -15 -15 0 -10 -10 -15 -30 -15 -20 0 -30
5 -30 15 0 8 -4 15 -10 15 -5 0 -10 7 -10 15 0 8 -7 15 -15 15 -19 0 -19 2 6
44 12 21 29 36 40 36 10 0 19 7 19 15 0 8 7 15 15 15 9 0 15 9 15 25 0 23 -4
25 -40 25 -22 0 -40 -5 -40 -10 0 -6 -6 -10 -12 -9 -38 5 -48 -2 -48 -31 0
-20 -5 -30 -15 -30 -12 0 -15 -13 -15 -55 0 -42 3 -55 15 -55 10 0 15 -10 15
-28 0 -35 40 -52 125 -52 85 0 125 17 125 52 0 18 5 28 15 28 8 0 15 7 15 15
0 12 13 15 55 15 42 0 55 -3 55 -15 0 -8 7 -15 15 -15 11 0 15 -11 15 -40 0
-29 -4 -40 -15 -40 -9 0 -15 -9 -15 -25 0 -14 -7 -28 -15 -31 -8 -4 -15 -12
-15 -20 0 -8 -7 -14 -15 -14 -8 0 -15 -7 -15 -15 0 -9 -9 -15 -25 -15 -14 0
-25 -4 -25 -10 0 -5 -11 -10 -25 -10 -14 0 -28 -7 -31 -15 -5 -12 -27 -15
-115 -15 -90 0 -109 3 -109 15 0 9 -9 15 -25 15 -14 0 -25 5 -25 10 0 6 -7 10
-15 10 -8 0 -15 7 -15 15 0 8 -7 15 -15 15 -8 0 -15 7 -15 15 0 8 -7 15 -15
15 -10 0 -15 10 -15 30 0 20 -5 30 -15 30 -11 0 -15 11 -15 40 0 22 -4 40 -10
40 -5 0 -10 25 -10 55 0 30 5 55 10 55 6 0 10 18 10 40 0 29 4 40 15 40 10 0
15 10 15 30 0 20 5 30 15 30 8 0 15 7 15 15 0 8 7 15 15 15 8 0 15 5 15 10 0
6 6 10 14 10 7 0 19 7 26 15 7 8 25 15 41 15 19 0 29 5 29 15 0 12 16 15 84
15 65 0 85 -3 90 -15z m606 0 c0 -8 5 -15 10 -15 6 0 10 -30 10 -70 0 -68 -1
-70 -25 -70 -14 0 -25 -4 -25 -10 0 -5 -13 -10 -29 -10 -23 0 -32 -7 -43 -30
-7 -16 -19 -30 -25 -30 -10 0 -13 -39 -13 -165 0 -140 -2 -165 -15 -165 -8 0
-15 -7 -15 -15 0 -12 -13 -15 -55 -15 -42 0 -55 3 -55 15 0 8 -7 15 -15 15
-13 0 -15 37 -15 275 l0 275 70 0 c68 0 70 -1 70 -25 0 -14 6 -25 13 -25 17 1
47 25 47 39 0 6 11 11 25 11 16 0 25 6 25 15 0 10 10 15 30 15 20 0 30 -5 30
-15z m-8230 -30 c0 -10 10 -15 30 -15 30 0 30 -1 30 -55 0 -42 -3 -55 -15 -55
-8 0 -15 -4 -15 -10 0 -5 -18 -10 -40 -10 -22 0 -40 5 -40 10 0 6 -7 10 -15
10 -12 0 -15 13 -15 55 0 54 0 55 30 55 20 0 30 5 30 15 0 8 5 15 10 15 6 0
10 -7 10 -15z m480 0 c0 -8 -7 -15 -15 -15 -9 0 -15 -9 -15 -25 0 -16 -6 -25
-15 -25 -10 0 -15 -10 -15 -30 l0 -30 -70 0 c-56 0 -70 3 -70 15 0 8 7 15 15
15 11 0 15 11 15 40 0 29 4 40 15 40 8 0 15 7 15 15 0 12 14 15 70 15 56 0 70
-3 70 -15z m4160 -260 c0 -177 -4 -275 -10 -275 -5 0 -10 -7 -10 -15 0 -12
-13 -15 -60 -15 -47 0 -60 3 -60 15 0 8 -4 15 -10 15 -6 0 -10 98 -10 275 l0
275 80 0 80 0 0 -275z m920 -15 l0 -290 -70 0 -70 0 0 290 0 290 70 0 70 0 0
-290z m3110 220 l0 -70 -95 0 c-95 0 -95 0 -95 -25 0 -20 5 -25 25 -25 16 0
25 -6 25 -15 0 -9 9 -15 25 -15 14 0 28 -7 31 -15 4 -8 12 -15 20 -15 8 0 14
-6 14 -14 0 -8 10 -16 23 -18 14 -2 23 -11 25 -25 2 -13 10 -23 18 -23 11 0
14 -16 14 -70 0 -56 -3 -70 -15 -70 -10 0 -15 -10 -15 -30 0 -26 -4 -30 -26
-30 -14 0 -23 -4 -19 -10 4 -6 -8 -10 -29 -10 -25 0 -36 -4 -36 -15 0 -13 -21
-15 -125 -15 -104 0 -125 2 -125 15 0 8 -7 15 -15 15 -12 0 -15 13 -15 55 0
42 3 55 15 55 8 0 15 7 15 15 0 12 19 15 110 15 61 0 110 2 110 5 0 3 -11 16
-25 29 -14 13 -25 28 -25 35 0 6 -13 11 -30 11 -20 0 -30 5 -30 15 0 8 -7 15
-15 15 -8 0 -15 5 -15 10 0 6 -11 10 -25 10 -16 0 -25 6 -25 15 0 8 -7 15 -15
15 -10 0 -15 10 -15 34 0 18 -7 39 -15 46 -8 7 -15 16 -15 21 0 5 7 9 15 9 11
0 15 12 15 45 0 33 4 45 15 45 8 0 15 5 15 10 0 6 7 10 15 10 8 0 15 7 15 15
0 13 23 15 150 15 l150 0 0 -70z m-10802 -277 c2 -274 0 -313 -13 -313 -8 0
-15 -7 -15 -15 0 -12 -13 -15 -55 -15 -42 0 -55 3 -55 15 0 10 -10 15 -30 15
-20 0 -30 -5 -30 -15 0 -22 -162 -22 -184 0 -8 8 -19 15 -25 15 -6 0 -11 5
-11 10 0 6 -7 10 -15 10 -8 0 -15 7 -15 15 0 8 -7 15 -15 15 -8 0 -15 7 -15
15 0 8 -4 15 -9 15 -6 0 -11 23 -13 52 -2 30 -8 53 -15 56 -7 2 -13 -3 -13
-12 0 -14 -22 -16 -174 -16 l-173 0 5 -25 c2 -14 11 -25 18 -25 8 0 14 -7 14
-15 0 -12 16 -15 85 -15 69 0 85 3 85 15 0 11 11 15 40 15 29 0 40 -4 40 -15
0 -8 7 -15 15 -15 10 0 15 -10 15 -30 0 -20 -5 -30 -15 -30 -8 0 -15 -4 -15
-10 0 -5 -11 -10 -25 -10 -16 0 -25 -6 -25 -15 0 -12 -19 -15 -114 -15 -92 0
-115 3 -120 15 -3 8 -15 15 -26 15 -11 0 -20 5 -20 10 0 6 -7 10 -15 10 -8 0
-15 7 -15 15 0 8 -7 15 -15 15 -8 0 -15 7 -15 15 0 8 -4 15 -10 15 -5 0 -10
18 -10 40 0 29 -4 40 -16 40 -12 0 -14 10 -12 53 2 35 7 51 16 50 8 -2 12 9
12 32 0 19 5 35 10 35 6 0 10 11 10 25 0 16 6 25 15 25 8 0 15 7 15 15 0 8 7
15 15 15 8 0 15 7 15 15 0 8 3 14 8 14 34 -6 72 3 72 16 0 12 14 15 70 15 56
0 70 -3 70 -15 0 -10 10 -15 30 -15 20 0 30 -5 30 -15 0 -8 5 -15 10 -15 6 0
10 -7 10 -15 0 -8 7 -15 15 -15 8 0 15 -4 15 -10 0 -5 7 -10 15 -10 10 0 15
-10 15 -30 0 -20 5 -30 15 -30 9 0 15 -9 15 -25 0 -16 6 -25 15 -25 11 0 15
11 15 40 0 22 5 40 10 40 6 0 10 11 10 25 0 16 6 25 15 25 8 0 15 7 15 15 0 8
6 15 14 15 8 0 16 7 20 15 3 9 18 15 36 15 18 0 33 6 36 15 5 11 21 15 60 15
41 0 54 -4 54 -15 0 -10 10 -15 30 -15 20 0 30 -5 30 -15 0 -8 7 -15 15 -15
12 0 15 19 15 110 l0 111 68 -3 67 -3 3 -312z m840 150 c18 -4 20 -8 10 -14
-8 -6 0 -9 25 -9 26 0 37 -4 37 -15 0 -8 7 -15 15 -15 8 0 15 -7 15 -15 0 -8
7 -15 15 -15 8 0 15 -4 15 -10 0 -5 7 -10 15 -10 8 0 15 -7 15 -15 0 -8 -7
-15 -15 -15 -8 0 -15 -7 -15 -15 0 -8 -7 -15 -15 -15 -8 0 -15 -7 -15 -15 0
-10 -10 -15 -30 -15 -20 0 -30 5 -30 15 0 8 -4 15 -10 15 -5 0 -10 7 -10 15 0
12 -16 15 -82 15 -57 0 -78 -3 -68 -10 13 -9 7 -14 -12 -11 -5 0 -8 -3 -8 -9
0 -5 -7 -10 -15 -10 -12 0 -15 -16 -15 -80 0 -64 3 -80 15 -80 8 0 15 -4 15
-10 0 -5 7 -10 15 -10 8 0 15 -6 15 -13 0 -9 17 -14 55 -16 44 -2 55 1 55 13
0 9 7 16 15 16 8 0 15 5 15 10 0 6 21 10 46 10 29 0 43 -4 39 -11 -4 -6 -1
-10 6 -8 31 4 49 -2 49 -16 0 -8 -7 -15 -15 -15 -10 0 -15 -10 -15 -28 0 -24
-6 -29 -45 -41 -25 -7 -45 -19 -45 -27 0 -11 -23 -14 -110 -14 -91 0 -110 3
-110 15 0 9 -9 15 -25 15 -14 0 -25 5 -25 10 0 6 -7 10 -15 10 -8 0 -15 7 -15
15 0 8 -7 15 -15 15 -10 0 -15 10 -15 30 0 20 -5 30 -15 30 -12 0 -15 18 -15
101 0 82 3 100 14 96 7 -3 13 0 13 6 -1 33 4 47 18 47 8 0 15 5 15 10 0 6 7
10 15 10 8 0 15 7 15 15 0 8 5 15 10 15 6 0 10 6 10 14 0 8 16 16 42 19 24 3
44 11 46 16 4 12 83 15 120 4z m458 -8 c4 -9 19 -15 35 -15 19 0 29 -5 29 -15
0 -8 5 -15 10 -15 6 0 10 7 10 15 0 12 13 15 60 15 l60 0 0 -235 0 -235 -60 0
c-47 0 -60 3 -60 15 0 9 -9 15 -25 15 -16 0 -25 -6 -25 -15 0 -12 -18 -15
-100 -15 -73 0 -100 3 -100 13 0 6 -18 20 -40 29 -32 13 -40 22 -40 42 0 16
-6 26 -15 26 -9 0 -15 9 -15 25 0 14 -4 25 -10 25 -6 0 -10 35 -10 85 0 50 4
85 10 85 6 0 10 14 10 30 0 20 5 30 15 30 8 0 15 5 15 10 0 6 7 10 15 10 8 0
15 7 15 15 0 8 7 15 15 15 8 0 15 7 15 15 0 9 9 15 25 15 14 0 28 7 31 15 5
11 22 15 65 15 44 0 61 -4 65 -15z m570 0 c9 -8 29 -15 45 -15 19 0 29 -5 29
-15 0 -8 7 -15 15 -15 8 0 15 -7 15 -15 0 -8 5 -15 11 -15 14 0 39 -25 39 -39
0 -6 -4 -11 -10 -11 -5 0 -10 -7 -10 -15 0 -8 -7 -15 -15 -15 -8 0 -15 -7 -15
-15 0 -10 -10 -15 -30 -15 -20 0 -30 5 -30 15 0 8 -7 15 -15 15 -8 0 -15 7
-15 15 0 12 -15 15 -74 15 -65 0 -75 -2 -81 -19 -4 -12 -12 -18 -21 -14 -11 4
-14 -10 -14 -81 0 -70 3 -86 15 -86 8 0 15 -4 15 -10 0 -5 7 -10 15 -10 8 0
15 -7 15 -15 0 -12 13 -15 55 -15 32 0 55 4 55 11 0 22 30 39 69 39 23 0 41
-4 41 -10 0 -5 11 -10 25 -10 25 0 35 -23 15 -35 -5 -3 -10 -16 -10 -28 0 -18
-9 -25 -44 -36 -25 -7 -47 -19 -50 -27 -8 -21 -216 -20 -216 1 0 9 -10 15 -26
15 -26 0 -54 20 -54 39 0 6 -7 11 -15 11 -10 0 -15 10 -15 30 0 20 -5 30 -15
30 -12 0 -15 18 -15 99 0 75 4 103 15 115 8 8 15 19 15 25 0 6 5 11 11 11 14
0 39 25 39 39 0 6 7 11 15 11 8 0 15 7 15 15 0 10 10 15 30 15 18 0 33 6 36
15 5 11 22 15 66 15 39 0 64 -5 74 -15z m684 0 c0 -11 11 -15 40 -15 31 0 38
-3 34 -15 -4 -10 0 -15 15 -15 12 0 21 -6 21 -15 0 -8 7 -15 15 -15 9 0 15 -9
15 -25 0 -16 6 -25 15 -25 11 0 15 -11 15 -35 0 -22 6 -38 15 -41 9 -4 15 -19
15 -39 0 -19 -7 -40 -15 -49 -8 -8 -15 -31 -15 -50 0 -25 -4 -36 -15 -36 -8 0
-15 -7 -15 -15 0 -8 -7 -15 -15 -15 -8 0 -15 -7 -15 -15 0 -8 -7 -15 -15 -15
-8 0 -15 -4 -15 -10 0 -5 -11 -10 -25 -10 -16 0 -25 -6 -25 -15 0 -12 -18 -15
-99 -15 -79 0 -100 3 -105 15 -3 8 -15 15 -26 15 -11 0 -20 5 -20 10 0 6 -7
10 -15 10 -8 0 -15 7 -15 15 0 8 -7 15 -15 15 -8 0 -15 7 -15 15 0 8 -4 15
-10 15 -5 0 -10 18 -10 40 0 29 -4 40 -15 40 -12 0 -15 13 -15 55 0 42 3 55
15 55 11 0 15 11 15 38 1 38 19 72 39 72 6 0 11 7 11 15 0 8 9 15 20 15 11 0
19 6 18 13 -2 7 11 13 35 15 24 2 37 8 37 18 0 11 16 14 70 14 56 0 70 -3 70
-15z m560 0 c0 -9 9 -15 25 -15 16 0 25 -6 25 -15 0 -8 7 -15 15 -15 8 0 15
-7 15 -15 0 -8 6 -15 14 -15 17 0 24 -51 34 -238 6 -104 4 -131 -5 -127 -8 3
-13 -5 -13 -20 0 -24 -3 -25 -55 -25 l-55 0 0 150 c0 127 -2 150 -15 150 -10
0 -15 10 -15 30 l0 30 -70 0 c-56 0 -70 -3 -70 -15 0 -8 -7 -15 -15 -15 -13 0
-15 -24 -15 -155 0 -133 -2 -154 -15 -149 -10 4 -15 0 -15 -10 0 -14 -9 -17
-52 -14 l-53 3 -3 233 -2 232 70 0 c56 0 70 -3 70 -15 0 -8 7 -15 15 -15 8 0
15 7 15 15 0 10 10 15 30 15 20 0 30 5 30 15 0 12 13 15 55 15 42 0 55 -3 55
-15z m-2946 -37 c3 -13 6 -76 6 -140 0 -72 4 -118 10 -118 6 0 10 -11 10 -25
0 -16 6 -25 15 -25 8 0 15 -7 15 -15 0 -11 11 -15 40 -15 29 0 40 4 40 15 0 8
7 15 15 15 8 0 15 5 15 10 0 6 7 10 15 10 13 0 15 24 15 156 l0 156 68 -4 67
-3 3 -137 c2 -98 -1 -138 -9 -138 -6 0 -9 -7 -5 -15 3 -8 1 -15 -4 -15 -6 0
-10 -18 -10 -40 0 -29 -4 -40 -15 -40 -8 0 -15 -7 -15 -15 0 -8 -7 -15 -15
-15 -8 0 -15 -4 -15 -10 0 -5 -5 -10 -11 -10 -6 0 -17 -7 -25 -15 -12 -11 -40
-15 -115 -15 -81 0 -99 3 -99 15 0 9 -9 15 -25 15 -14 0 -25 5 -25 10 0 6 -7
10 -15 10 -10 0 -15 10 -15 30 0 20 -5 30 -15 30 -13 0 -15 27 -15 180 l0 180
54 0 c47 0 54 -3 60 -22z m2026 -203 c0 -152 -3 -225 -11 -225 -5 0 -7 -5 -4
-11 5 -7 -14 -9 -57 -7 l-63 3 -3 233 -2 232 70 0 70 0 0 -225z"/>
<path d="M10136 15125 c-3 -8 -17 -15 -31 -15 -23 0 -31 -13 -26 -42 0 -5 -3
-8 -9 -8 -5 0 -10 -13 -10 -30 l0 -30 150 0 150 0 0 40 c0 29 -4 40 -15 40 -8
0 -15 7 -15 15 0 8 -4 15 -10 15 -5 0 -10 7 -10 15 0 12 -16 15 -84 15 -65 0
-85 -3 -90 -15z"/>
<path d="M11110 15125 c0 -9 -9 -15 -21 -15 -12 0 -19 -5 -17 -12 5 -14 -15
-38 -31 -38 -6 0 -11 -13 -11 -30 l0 -30 162 0 c126 0 159 3 150 12 -7 7 -12
25 -12 40 0 15 -4 28 -10 28 -5 0 -10 7 -10 15 0 8 -7 15 -15 15 -8 0 -15 7
-15 15 0 12 -16 15 -85 15 -69 0 -85 -3 -85 -15z"/>
<path d="M14650 12100 c-11 -11 -20 -33 -20 -50 0 -23 -4 -30 -20 -30 -11 0
-20 -7 -20 -15 0 -8 9 -15 20 -15 19 0 20 -7 20 -105 0 -98 1 -105 20 -105 19
0 20 7 20 105 l0 105 25 0 c16 0 25 6 25 15 0 9 -10 15 -26 15 -22 0 -25 4
-22 28 2 21 9 28 31 30 19 2 27 9 27 23 0 26 -53 26 -80 -1z"/>
<path d="M11590 12054 c0 -50 -2 -55 -17 -48 -36 17 -95 9 -114 -15 -39 -48
-36 -145 6 -187 27 -27 82 -33 104 -11 11 10 14 10 18 0 3 -7 13 -13 24 -13
18 0 19 9 19 165 0 158 -1 165 -20 165 -18 0 -20 -7 -20 -56z m-12 -87 c18
-14 16 -121 -3 -137 -20 -17 -64 -16 -82 2 -20 21 -28 90 -13 117 19 37 63 45
98 18z"/>
<path d="M7000 12080 c0 -17 7 -20 50 -20 l50 0 0 -140 c0 -133 1 -140 20
-140 19 0 20 7 20 140 l0 140 50 0 c43 0 50 3 50 20 0 19 -7 20 -120 20 -113
0 -120 -1 -120 -20z"/>
<path d="M8890 11949 c-30 -83 -57 -155 -59 -161 -2 -5 7 -8 20 -6 15 2 26 14
34 38 12 35 12 35 78 38 l67 3 16 -41 c11 -28 22 -40 36 -40 12 0 18 5 16 13
-137 379 -129 373 -208 156z"/>
<path d="M11180 11940 l0 -160 106 0 c95 0 105 2 102 18 -3 14 -16 17 -81 20
l-77 3 0 54 0 55 65 0 c51 0 65 3 65 15 0 12 -14 15 -65 15 l-65 0 0 50 0 50
75 0 c68 0 75 2 75 20 0 19 -7 20 -100 20 l-100 0 0 -160z"/>
<path d="M13340 12080 c0 -17 7 -20 50 -20 l50 0 0 -140 c0 -133 1 -140 20
-140 19 0 20 7 20 140 l0 140 50 0 c43 0 50 3 50 20 0 19 -7 20 -120 20 -113
0 -120 -1 -120 -20z"/>
<path d="M10020 12050 c0 -23 -4 -30 -20 -30 -11 0 -20 -7 -20 -15 0 -8 9 -15
20 -15 18 0 20 -7 20 -88 0 -99 12 -122 63 -122 33 0 37 27 5 32 -22 3 -23 8
-26 91 l-3 87 26 0 c16 0 25 6 25 15 0 9 -9 15 -25 15 -21 0 -25 5 -25 30 0
23 -4 30 -20 30 -16 0 -20 -7 -20 -30z"/>
<path d="M14370 12050 c0 -23 -4 -30 -20 -30 -11 0 -20 -7 -20 -15 0 -8 9 -15
20 -15 18 0 20 -7 20 -83 0 -96 16 -130 58 -125 33 4 38 21 10 33 -21 9 -23
18 -26 93 l-3 82 26 0 c32 0 29 23 -3 28 -17 3 -22 10 -22 33 0 22 -5 29 -20
29 -16 0 -20 -7 -20 -30z"/>
<path d="M7304 11986 c-29 -29 -34 -41 -34 -80 0 -79 39 -126 106 -126 29 0
84 26 84 40 0 18 -20 21 -42 6 -12 -9 -30 -16 -39 -16 -25 0 -69 39 -69 61 0
17 8 19 81 19 l81 0 -7 36 c-18 96 -96 125 -161 60z"/>
<path d="M7654 11986 c-29 -29 -34 -41 -34 -80 0 -79 39 -126 106 -126 29 0
84 26 84 40 0 18 -20 21 -42 6 -12 -9 -30 -16 -39 -16 -25 0 -69 39 -69 61 0
17 8 19 81 19 79 0 81 1 75 23 -3 12 -6 29 -6 38 0 9 -12 28 -26 43 -39 38
-86 36 -130 -8z"/>
<path d="M7904 12009 c-49 -24 -70 -119 -39 -178 8 -16 28 -34 45 -41 54 -22
130 8 130 52 0 25 -18 23 -46 -7 -48 -51 -104 -16 -104 66 0 49 14 73 50 84
25 8 57 -9 65 -35 6 -19 25 -26 38 -14 9 10 -21 62 -42 74 -24 12 -69 12 -97
-1z"/>
<path d="M8114 11986 c-35 -35 -36 -39 -32 -93 4 -48 10 -61 37 -85 43 -38 90
-38 133 1 30 27 33 34 33 90 0 52 -4 64 -26 87 -16 16 -41 28 -67 31 -38 5
-45 2 -78 -31z m111 -21 c19 -18 25 -35 25 -65 0 -44 -33 -90 -65 -90 -32 0
-65 46 -65 90 0 44 33 90 65 90 9 0 27 -11 40 -25z"/>
<path d="M8350 11900 c0 -113 1 -120 20 -120 19 0 20 7 20 90 0 83 2 91 24
105 18 12 30 13 50 6 26 -10 26 -12 26 -106 0 -94 1 -96 23 -93 20 3 22 8 24
77 2 117 11 133 70 123 27 -5 33 -27 33 -124 0 -71 2 -78 20 -78 19 0 20 7 20
95 0 88 -2 98 -25 120 -28 29 -70 32 -103 9 -20 -14 -24 -14 -44 0 -12 9 -34
16 -48 16 -14 0 -36 -7 -48 -16 -20 -14 -22 -14 -22 0 0 9 -9 16 -20 16 -19 0
-20 -7 -20 -120z"/>
<path d="M9332 12010 c-45 -19 -65 -109 -38 -175 22 -51 78 -71 127 -45 16 9
19 7 19 -10 0 -24 -33 -60 -55 -60 -9 0 -29 7 -45 15 -34 18 -52 2 -26 -23 26
-27 110 -23 138 6 21 21 23 32 26 162 3 134 3 140 -16 140 -11 0 -22 -5 -24
-11 -3 -9 -9 -9 -25 0 -25 13 -49 13 -81 1z m96 -42 c18 -18 15 -123 -3 -138
-21 -18 -64 -16 -83 4 -21 21 -23 106 -3 129 16 20 71 23 89 5z"/>
<path d="M9554 11986 c-29 -29 -34 -41 -34 -80 0 -79 39 -126 106 -126 29 0
84 26 84 40 0 18 -20 21 -42 6 -12 -9 -30 -16 -39 -16 -25 0 -69 39 -69 61 0
17 8 19 81 19 l81 0 -7 36 c-8 47 -23 70 -52 83 -42 19 -73 13 -109 -23z"/>
<path d="M9770 11900 c0 -113 1 -120 20 -120 17 0 20 8 22 92 3 86 5 93 27
104 14 7 33 9 45 5 19 -8 21 -17 24 -105 2 -88 4 -96 22 -96 19 0 20 7 20 100
0 89 -2 101 -22 120 -26 24 -65 26 -96 4 -20 -14 -22 -14 -22 0 0 9 -9 16 -20
16 -19 0 -20 -7 -20 -120z"/>
<path d="M10270 11900 c0 -113 1 -120 20 -120 17 0 20 8 22 92 3 86 5 93 27
104 14 7 33 9 45 5 19 -8 21 -17 24 -105 2 -88 4 -96 22 -96 19 0 20 7 20 100
0 87 -3 103 -20 120 -24 24 -67 26 -98 4 -20 -14 -22 -14 -22 0 0 9 -9 16 -20
16 -19 0 -20 -7 -20 -120z"/>
<path d="M10535 11995 c-14 -13 -25 -29 -25 -35 0 -17 29 -11 50 10 11 11 27
20 35 20 8 0 24 -9 35 -20 33 -33 26 -50 -20 -50 -53 0 -86 -17 -101 -51 -23
-57 40 -105 105 -80 20 7 32 8 34 1 2 -5 13 -10 24 -10 19 0 20 5 16 101 -3
92 -5 103 -27 120 -34 28 -96 25 -126 -6z"/>
<path d="M10840 12013 c0 -5 18 -57 40 -117 35 -96 38 -112 27 -135 -7 -14
-22 -27 -35 -29 -31 -5 -30 -42 1 -42 39 0 62 38 111 183 25 76 46 140 46 142
0 3 -9 5 -19 5 -16 0 -25 -17 -47 -87 l-27 -88 -29 88 c-24 69 -34 87 -49 87
-10 0 -19 -3 -19 -7z"/>
<path d="M11690 11920 c0 -87 3 -103 20 -120 22 -22 70 -26 101 -10 13 7 19 7
19 0 0 -5 9 -10 20 -10 19 0 20 7 20 120 0 113 -1 120 -20 120 -17 0 -20 -8
-22 -92 -3 -86 -5 -93 -27 -104 -14 -7 -33 -9 -45 -5 -19 8 -21 17 -24 105 -2
88 -4 96 -22 96 -19 0 -20 -7 -20 -100z"/>
<path d="M11974 12009 c-49 -24 -70 -119 -39 -178 8 -16 28 -34 45 -41 54 -22
130 8 130 52 0 25 -18 23 -46 -7 -13 -14 -32 -25 -43 -25 -59 0 -84 108 -36
155 13 14 31 25 40 25 16 0 50 -29 56 -49 3 -7 12 -9 21 -6 16 6 16 10 3 36
-25 47 -79 62 -131 38z"/>
<path d="M12185 11995 c-14 -13 -25 -29 -25 -35 0 -17 29 -11 50 10 26 26 55
25 74 -2 26 -36 20 -48 -24 -48 -53 0 -86 -17 -101 -51 -23 -57 40 -105 105
-80 20 7 32 8 34 1 2 -5 12 -10 23 -10 17 0 19 8 19 94 0 85 -2 95 -25 120
-33 36 -95 37 -130 1z"/>
<path d="M12441 12006 c-33 -18 -50 -53 -51 -104 0 -56 21 -96 60 -112 54 -22
130 8 130 52 0 25 -18 23 -46 -7 -49 -53 -107 -14 -102 69 2 39 8 53 29 69 32
23 66 16 79 -19 12 -29 40 -32 40 -4 0 55 -82 88 -139 56z"/>
<path d="M12764 11986 c-30 -30 -34 -40 -34 -86 0 -46 4 -56 34 -86 48 -48 95
-47 143 1 34 34 35 38 31 92 -4 48 -10 61 -37 85 -45 41 -92 39 -137 -6z m111
-21 c19 -18 25 -35 25 -65 0 -44 -33 -90 -65 -90 -9 0 -27 11 -40 25 -42 41
-31 125 18 145 32 13 36 12 62 -15z"/>
<path d="M13000 11900 c0 -113 1 -120 20 -120 17 0 20 8 22 92 3 86 5 93 27
104 14 7 33 9 45 5 19 -8 21 -17 24 -105 2 -88 4 -96 22 -96 19 0 20 7 20 100
0 89 -2 101 -22 120 -26 24 -65 26 -96 4 -20 -14 -22 -14 -22 0 0 9 -9 16 -20
16 -19 0 -20 -7 -20 -120z"/>
<path d="M13784 12009 c-49 -24 -70 -119 -39 -178 8 -16 28 -34 45 -41 54 -22
130 8 130 52 0 25 -18 23 -46 -7 -59 -64 -125 11 -98 112 13 49 94 51 109 3 6
-19 25 -26 38 -14 9 10 -21 62 -42 74 -24 12 -69 12 -97 -1z"/>
<path d="M13994 11986 c-29 -29 -34 -41 -34 -80 0 -79 39 -126 106 -126 29 0
84 26 84 40 0 18 -18 20 -46 5 -16 -8 -34 -15 -40 -15 -21 0 -64 41 -64 61 0
17 8 19 81 19 l81 0 -7 36 c-8 47 -23 70 -52 83 -42 19 -73 13 -109 -23z"/>
<path d="M14911 12006 c-33 -18 -50 -53 -51 -104 0 -56 21 -96 60 -112 54 -22
130 8 130 52 0 25 -18 23 -46 -7 -48 -51 -104 -16 -104 66 0 39 5 51 26 68 15
12 33 21 40 21 16 0 49 -31 56 -51 2 -7 11 -10 21 -6 16 6 17 9 2 37 -24 47
-85 63 -134 36z"/>
<path d="M15143 12010 c-19 -8 -43 -38 -43 -54 0 -14 32 -4 50 14 26 26 55 25
74 -2 26 -36 20 -48 -24 -48 -53 0 -86 -17 -101 -51 -23 -57 40 -105 105 -80
20 7 32 8 34 1 2 -5 13 -10 24 -10 19 0 20 5 16 101 -3 92 -5 103 -27 120 -24
20 -71 24 -108 9z"/>
<path d="M15340 11900 c0 -113 1 -120 20 -120 18 0 20 8 22 92 3 90 4 93 30
106 21 10 33 10 48 2 18 -10 20 -21 20 -105 0 -88 1 -95 20 -95 19 0 20 7 20
100 0 89 -2 101 -22 120 -26 24 -65 26 -96 4 -20 -14 -22 -14 -22 0 0 9 -9 16
-20 16 -19 0 -20 -7 -20 -120z"/>
<path d="M15737 12009 c-62 -36 -61 -185 2 -219 25 -13 78 -13 86 0 15 24 25
6 25 -45 0 -48 2 -55 20 -55 19 0 20 7 20 165 0 156 -1 165 -19 165 -11 0 -21
-5 -23 -11 -3 -9 -9 -9 -25 0 -26 14 -62 14 -86 0z m91 -35 c18 -13 22 -24 22
-74 0 -52 -3 -62 -25 -76 -50 -33 -95 6 -95 82 0 24 8 43 25 59 28 29 42 31
73 9z"/>
<path d="M15950 11920 c0 -87 3 -103 20 -120 22 -22 70 -26 101 -10 13 7 19 7
19 0 0 -5 9 -10 20 -10 19 0 20 7 20 120 0 113 -1 120 -20 120 -17 0 -20 -8
-22 -92 -3 -86 -5 -93 -27 -104 -14 -7 -33 -9 -45 -5 -19 8 -21 17 -24 105 -2
88 -4 96 -22 96 -19 0 -20 -7 -20 -100z"/>
<path d="M16224 11986 c-29 -29 -34 -41 -34 -80 0 -79 39 -126 106 -126 29 0
84 26 84 40 0 18 -20 21 -42 6 -12 -9 -30 -16 -39 -16 -25 0 -69 39 -69 61 0
17 8 19 81 19 l81 0 -7 36 c-8 47 -23 70 -52 83 -42 19 -73 13 -109 -23z"/>
<path d="M8480 10510 l0 -230 50 0 50 0 0 230 0 230 -50 0 -50 0 0 -230z"/>
<path d="M10670 10510 l0 -230 50 0 50 0 0 230 0 230 -50 0 -50 0 0 -230z"/>
<path d="M11350 10660 l0 -81 -31 17 c-55 28 -114 3 -148 -63 -6 -12 -11 -55
-11 -96 0 -81 22 -129 70 -155 31 -16 86 -9 111 14 18 16 19 16 19 1 0 -13 10
-17 45 -17 l45 0 0 230 0 230 -50 0 -50 0 0 -80z m-5 -220 l0 -85 -35 0 c-44
0 -62 31 -57 97 5 60 21 80 61 76 l31 -3 0 -85z"/>
<path d="M12020 10661 l0 -79 -31 15 c-55 27 -114 2 -148 -64 -6 -12 -11 -55
-11 -96 0 -81 22 -129 70 -155 31 -16 86 -9 111 14 18 16 19 16 19 1 0 -13 10
-17 45 -17 l45 0 0 230 0 230 -50 0 -50 0 0 -79z m-5 -221 l0 -85 -35 0 c-44
0 -62 31 -57 97 5 60 21 80 61 76 l31 -3 0 -85z"/>
<path d="M12740 10510 l0 -230 45 0 45 0 0 119 c0 128 1 131 56 131 35 0 44
-33 44 -151 l0 -99 45 0 45 0 0 125 c0 151 -10 178 -70 196 -34 10 -46 10 -74
-4 -19 -8 -37 -13 -40 -10 -3 4 -6 39 -6 80 l0 73 -45 0 -45 0 0 -230z"/>
<path d="M10047 10706 c-80 -30 -114 -93 -83 -154 21 -41 58 -68 128 -94 69
-25 96 -55 78 -88 -9 -18 -19 -21 -58 -18 -42 3 -49 6 -62 35 -14 30 -19 33
-62 33 -43 0 -48 -2 -48 -23 0 -12 11 -39 25 -59 63 -93 261 -88 301 8 32 77
-12 145 -121 185 -92 33 -114 59 -77 92 29 26 78 22 98 -8 14 -21 24 -25 66
-25 47 0 49 1 43 23 -12 37 -34 66 -64 81 -43 23 -120 28 -164 12z"/>
<path d="M12453 10709 c-94 -28 -144 -162 -112 -298 13 -60 44 -100 93 -122
102 -46 228 6 252 104 6 27 6 27 -45 27 -39 0 -51 -4 -51 -15 0 -25 -38 -55
-70 -55 -19 0 -40 9 -55 25 -23 22 -25 32 -25 120 0 88 2 98 25 120 43 44 125
21 125 -35 0 -17 7 -20 50 -20 41 0 50 3 50 18 0 29 -44 95 -75 113 -37 22
-120 31 -162 18z"/>
<path d="M7620 10495 l0 -215 56 0 55 0 -7 140 c-4 77 -4 140 -1 140 2 0 26
-63 52 -140 l48 -140 33 0 c36 0 39 5 99 190 15 47 30 88 34 92 3 4 4 -58 3
-137 l-4 -145 51 0 51 0 0 215 0 215 -68 0 -69 0 -42 -137 c-24 -76 -47 -142
-51 -146 -4 -5 -28 57 -54 137 l-47 146 -69 0 -70 0 0 -215z"/>
<path d="M13810 10640 c0 -33 -3 -40 -20 -40 -16 0 -20 -7 -20 -35 0 -28 4
-35 20 -35 19 0 20 -7 20 -104 0 -132 11 -150 91 -151 l54 0 3 38 c3 33 1 37
-21 37 -32 0 -37 15 -37 106 l0 74 30 0 c28 0 30 3 30 35 0 32 -2 35 -30 35
-28 0 -30 2 -30 40 l0 40 -45 0 -45 0 0 -40z"/>
<path d="M8224 10596 c-30 -13 -74 -60 -74 -77 0 -5 23 -9 50 -9 36 0 52 4 56
15 9 22 51 18 64 -5 14 -27 5 -40 -28 -40 -44 0 -101 -20 -121 -41 -41 -44
-33 -112 19 -146 38 -26 73 -29 112 -9 16 9 30 11 33 5 4 -5 29 -9 56 -9 35 0
48 3 43 11 -4 7 -6 55 -6 108 1 108 -11 155 -48 183 -34 25 -116 32 -156 14z"/>
<path d="M9253 10591 c-27 -17 -33 -18 -33 -6 0 11 -12 15 -45 15 l-45 0 0
-160 0 -160 45 0 45 0 0 113 c0 123 5 137 52 137 39 0 48 -29 48 -151 l0 -99
46 0 46 0 -4 140 c-3 126 -5 142 -24 161 -31 30 -91 35 -131 10z"/>
<path d="M9534 10596 c-30 -13 -74 -60 -74 -77 0 -15 90 -10 106 6 21 21 51
19 64 -4 17 -33 12 -38 -45 -44 -69 -7 -113 -33 -124 -72 -12 -48 1 -87 38
-112 39 -26 74 -29 113 -9 16 9 30 11 33 5 4 -5 29 -9 56 -9 37 0 48 3 43 12
-5 7 -7 55 -6 108 1 107 -11 154 -48 182 -34 25 -116 32 -156 14z"/>
<path d="M10416 10600 c-64 -20 -96 -76 -96 -168 0 -70 26 -117 80 -144 70
-35 154 -13 197 51 18 27 23 48 23 100 0 72 -20 117 -63 145 -29 20 -103 28
-141 16z m101 -107 c16 -40 13 -104 -7 -128 -16 -20 -64 -19 -81 1 -17 20 -17
111 -1 142 9 15 22 22 43 22 25 0 32 -6 46 -37z"/>
<path d="M10912 10591 c-32 -15 -47 -31 -62 -63 -77 -170 82 -323 238 -228
l33 20 -22 31 c-19 28 -23 29 -38 15 -27 -25 -96 -21 -115 6 -9 12 -16 26 -16
30 0 5 45 8 100 8 l100 0 0 38 c-1 48 -32 116 -62 136 -41 27 -107 29 -156 7z"/>
<path d="M11579 10595 c-29 -13 -69 -58 -69 -79 0 -3 23 -6 50 -6 36 0 52 4
56 15 9 22 51 18 64 -5 14 -27 5 -40 -28 -40 -44 0 -101 -20 -121 -41 -41 -44
-33 -112 19 -146 38 -26 73 -29 112 -9 16 9 30 11 33 5 4 -5 29 -9 56 -9 37 0
48 3 43 12 -5 7 -7 55 -6 108 1 107 -11 154 -48 182 -35 25 -116 32 -161 13z"/>
<path d="M13207 10590 c-30 -24 -37 -25 -37 -5 0 11 -12 15 -45 15 l-45 0 0
-160 0 -160 50 0 49 0 3 113 3 112 43 9 c41 10 42 10 42 53 0 35 -3 43 -19 43
-10 0 -30 -9 -44 -20z"/>
<path d="M13534 10596 c-67 -29 -84 -98 -36 -145 16 -16 52 -36 85 -45 49 -14
57 -20 57 -41 0 -36 -52 -39 -82 -4 -11 13 -29 19 -57 19 -48 0 -52 -13 -19
-55 74 -95 258 -59 258 50 0 47 -48 86 -121 99 -46 8 -67 30 -49 51 7 8 23 15
37 15 13 0 26 -7 29 -15 8 -20 104 -21 104 -1 0 28 -40 64 -84 75 -57 14 -84
13 -122 -3z"/>
<path d="M14224 10590 c-34 -17 -64 -53 -64 -75 0 -3 22 -5 49 -5 34 0 51 4
55 15 8 22 53 19 66 -4 17 -32 12 -41 -22 -41 -93 0 -151 -43 -150 -110 1 -46
12 -64 53 -86 35 -18 67 -18 101 0 16 9 30 11 33 5 4 -5 29 -9 56 -9 35 0 48
3 43 12 -4 6 -7 54 -6 107 2 151 -25 196 -123 207 -39 4 -59 0 -91 -16z"/>
<path d="M14613 10590 c-27 -16 -33 -17 -33 -5 0 11 -12 15 -45 15 l-45 0 0
-160 0 -160 45 0 45 0 0 113 c0 123 5 137 52 137 39 0 48 -29 48 -151 l0 -99
45 0 45 0 0 125 c0 139 -11 178 -56 195 -38 15 -66 12 -101 -10z"/>
<path d="M14903 10599 c-17 -5 -41 -21 -52 -35 -48 -61 -9 -129 92 -158 49
-14 57 -20 57 -41 0 -36 -52 -39 -82 -4 -11 13 -29 19 -57 19 -49 0 -53 -15
-15 -59 74 -88 254 -51 254 51 0 50 -46 88 -121 102 -46 8 -67 30 -49 51 7 8
23 15 37 15 13 0 26 -7 29 -15 8 -20 104 -21 104 -1 0 28 -40 64 -84 75 -52
13 -69 13 -113 0z"/>
<path d="M15223 10591 c-60 -28 -87 -83 -81 -169 4 -60 7 -67 45 -103 61 -57
137 -64 211 -19 l33 20 -22 31 c-19 28 -23 29 -38 15 -27 -25 -96 -21 -115 6
-9 12 -16 26 -16 30 0 5 46 8 101 8 l102 0 -6 56 c-7 70 -42 119 -95 134 -51
14 -71 12 -119 -9z"/>
<path d="M15607 10591 c-29 -15 -37 -16 -37 -5 0 10 -13 14 -45 14 l-45 0 0
-160 0 -160 45 0 45 0 0 113 c0 123 5 137 52 137 39 0 48 -29 48 -151 l0 -99
45 0 45 0 0 125 c0 139 -11 178 -56 195 -36 14 -55 12 -97 -9z"/>
<path d="M8630 10593 c0 -5 22 -75 48 -158 l48 -150 51 -3 51 -3 51 153 c28
84 51 156 51 161 0 4 -22 7 -50 7 -46 0 -50 -2 -56 -27 -15 -69 -38 -149 -44
-156 -3 -4 -16 36 -29 88 l-23 95 -49 0 c-27 0 -49 -3 -49 -7z"/>
<path d="M8970 10440 l0 -160 45 0 45 0 0 160 0 160 -45 0 -45 0 0 -160z"/>
<path d="M13320 10440 l0 -160 45 0 45 0 0 160 0 160 -45 0 -45 0 0 -160z"/>
<path d="M14010 10440 l0 -160 45 0 45 0 0 160 0 160 -45 0 -45 0 0 -160z"/>
<path d="M10490 9250 l0 -140 55 0 c98 0 145 44 145 135 0 100 -45 145 -145
145 l-55 0 0 -140z m127 95 c31 -22 47 -85 33 -135 -12 -46 -42 -70 -87 -70
l-33 0 0 110 0 110 33 0 c18 0 42 -7 54 -15z"/>
<path d="M10740 9250 c0 -133 1 -140 20 -140 19 0 20 7 20 108 l0 107 70 -107
c51 -79 75 -108 90 -108 19 0 20 6 20 140 0 133 -1 140 -20 140 -19 0 -20 -7
-20 -107 l0 -108 -70 108 c-51 78 -75 107 -90 107 -19 0 -20 -6 -20 -140z"/>
<path d="M11253 9380 c-21 -9 -43 -38 -43 -59 0 -20 28 -11 44 14 27 41 86 31
86 -14 0 -34 -17 -51 -52 -51 -20 0 -26 -4 -22 -15 4 -8 17 -15 29 -15 44 0
66 -40 45 -81 -19 -34 -100 -16 -100 22 0 5 -7 9 -15 9 -24 0 -17 -37 11 -59
15 -12 41 -21 59 -21 50 0 85 33 85 80 0 28 -6 43 -20 53 l-20 14 20 18 c27
24 25 61 -5 90 -25 26 -62 31 -102 15z"/>
<path d="M11482 9291 c-34 -54 -62 -104 -62 -110 0 -7 24 -11 65 -11 l65 0 0
-30 c0 -20 5 -30 15 -30 10 0 15 10 15 30 0 23 4 30 20 30 11 0 20 7 20 15 0
8 -9 15 -20 15 -19 0 -20 7 -20 95 0 130 -15 129 -98 -4z"/>
<path d="M11712 9377 c-46 -26 -78 -110 -67 -178 16 -96 130 -124 165 -40 34
83 -37 160 -111 121 -24 -14 -24 -3 1 38 13 21 31 35 50 39 17 3 30 12 30 19
0 17 -37 18 -68 1z"/>
<path d="M11911 9291 c-34 -55 -61 -104 -61 -110 0 -7 25 -11 65 -11 l65 0 0
-30 c0 -20 5 -30 15 -30 10 0 15 10 15 30 0 23 4 30 20 30 11 0 20 7 20 15 0
8 -9 15 -20 15 -19 0 -20 7 -20 95 0 87 -2 95 -19 95 -13 0 -37 -30 -80 -99z"/>
<path d="M12343 9380 c-23 -10 -43 -39 -43 -64 0 -24 23 -15 42 17 23 35 61
36 83 3 21 -31 13 -48 -66 -138 -33 -36 -59 -71 -59 -77 0 -7 33 -11 95 -11
78 0 95 3 95 15 0 12 -15 15 -72 15 l-72 0 35 38 c71 75 89 103 89 137 0 58
-64 90 -127 65z"/>
<path d="M12563 9380 c-23 -10 -43 -39 -43 -64 0 -26 24 -18 42 14 22 38 61
41 83 6 21 -31 13 -48 -66 -138 -33 -36 -59 -71 -59 -77 0 -7 33 -11 95 -11
78 0 95 3 95 15 0 12 -15 15 -72 15 l-72 0 40 43 c65 68 84 98 84 133 0 57
-64 89 -127 64z"/>
<path d="M12791 9291 c-34 -55 -61 -104 -61 -110 0 -7 25 -11 65 -11 l65 0 0
-30 c0 -20 5 -30 15 -30 10 0 15 10 15 30 0 23 4 30 20 30 11 0 20 7 20 15 0
8 -9 15 -20 15 -19 0 -20 7 -20 95 0 87 -2 95 -19 95 -13 0 -37 -30 -80 -99z"/>
<path d="M11270 8400 c-11 -11 -20 -33 -20 -50 0 -23 -4 -30 -20 -30 -11 0
-20 -7 -20 -15 0 -8 9 -15 20 -15 19 0 20 -7 20 -105 0 -98 1 -105 20 -105 19
0 20 7 20 105 l0 105 25 0 c16 0 25 6 25 15 0 9 -10 15 -26 15 -22 0 -25 4
-22 28 2 21 9 28 31 30 19 2 27 9 27 23 0 26 -53 26 -80 -1z"/>
<path d="M7770 8245 c0 -157 1 -165 20 -165 17 0 20 8 22 92 3 86 5 93 27 104
14 7 33 9 45 5 19 -8 21 -17 24 -105 2 -88 4 -96 22 -96 19 0 20 7 20 98 0 90
-2 100 -23 120 -27 26 -64 28 -95 6 l-22 -15 0 60 c0 54 -2 61 -20 61 -19 0
-20 -7 -20 -165z"/>
<path d="M9820 8354 c0 -50 -2 -55 -17 -48 -36 17 -95 9 -114 -15 -39 -48 -36
-145 6 -187 27 -27 82 -33 104 -11 11 10 14 10 18 0 3 -7 13 -13 24 -13 18 0
19 9 19 165 0 158 -1 165 -20 165 -18 0 -20 -7 -20 -56z m-12 -87 c18 -14 16
-121 -3 -137 -43 -36 -105 3 -105 67 0 75 55 111 108 70z"/>
<path d="M10760 8350 c0 -23 -4 -30 -20 -30 -11 0 -20 -7 -20 -15 0 -8 9 -15
20 -15 18 0 20 -7 20 -83 0 -97 14 -127 61 -127 35 0 39 21 7 35 -21 9 -23 18
-26 93 -3 82 -3 82 23 82 16 0 25 6 25 15 0 9 -9 15 -25 15 -21 0 -25 5 -25
30 0 23 -4 30 -20 30 -16 0 -20 -7 -20 -30z"/>
<path d="M11870 8350 c0 -23 -4 -30 -20 -30 -11 0 -20 -7 -20 -15 0 -8 9 -15
20 -15 18 0 20 -7 20 -83 0 -97 14 -127 61 -127 35 0 39 21 7 35 -21 9 -23 18
-26 93 -3 82 -3 82 23 82 16 0 25 6 25 15 0 9 -9 15 -25 15 -21 0 -25 5 -25
30 0 23 -4 30 -20 30 -16 0 -20 -7 -20 -30z"/>
<path d="M13640 8350 c0 -23 -4 -30 -20 -30 -11 0 -20 -7 -20 -15 0 -8 9 -15
20 -15 18 0 20 -7 20 -83 0 -97 14 -127 61 -127 35 0 39 21 7 35 -21 9 -23 18
-26 93 -3 82 -3 82 23 82 16 0 25 6 25 15 0 9 -9 15 -25 15 -21 0 -25 5 -25
30 0 23 -4 30 -20 30 -16 0 -20 -7 -20 -30z"/>
<path d="M8035 8295 c-14 -13 -25 -29 -25 -35 0 -17 29 -11 50 10 26 26 55 25
74 -2 26 -36 20 -48 -24 -48 -53 0 -86 -17 -101 -51 -23 -57 40 -105 105 -80
20 7 32 8 34 1 2 -5 13 -10 24 -10 19 0 20 5 16 101 -3 92 -5 103 -27 120 -34
28 -96 25 -126 -6z"/>
<path d="M8544 8286 c-30 -30 -34 -40 -34 -87 1 -75 40 -119 105 -119 30 0 85
26 85 40 0 18 -20 21 -42 6 -12 -9 -30 -16 -39 -16 -25 0 -69 39 -69 61 0 17
8 19 81 19 79 0 81 1 75 23 -3 12 -6 29 -6 38 0 9 -12 28 -26 43 -39 38 -86
36 -130 -8z"/>
<path d="M8800 8313 c-24 -9 -50 -35 -50 -50 0 -19 27 -16 50 7 26 26 55 25
74 -2 26 -37 20 -48 -24 -48 -82 0 -130 -53 -95 -106 19 -30 60 -40 99 -25 20
7 32 8 34 1 2 -5 13 -10 24 -10 19 0 20 5 16 101 -3 92 -5 103 -27 120 -22 18
-69 24 -101 12z"/>
<path d="M9200 8305 c0 -12 13 -15 60 -15 33 0 60 -3 60 -6 0 -3 -27 -43 -60
-89 -33 -46 -60 -90 -60 -99 0 -13 14 -16 90 -16 72 0 90 3 90 15 0 10 -16 15
-66 17 l-66 3 66 89 c36 49 66 96 66 103 0 10 -22 13 -90 13 -73 0 -90 -3 -90
-15z"/>
<path d="M9475 8308 c-22 -12 -45 -37 -45 -50 0 -15 30 -8 50 12 34 34 74 24
85 -23 7 -26 6 -27 -33 -27 -55 0 -88 -17 -103 -51 -23 -57 40 -105 105 -80
20 7 32 8 34 1 2 -5 12 -10 23 -10 17 0 19 8 19 83 0 45 -3 92 -6 105 -12 42
-85 65 -129 40z"/>
<path d="M9944 8286 c-30 -30 -34 -40 -34 -86 0 -46 4 -56 34 -86 45 -45 92
-47 138 -5 31 27 33 34 33 91 0 57 -2 64 -33 91 -46 42 -93 40 -138 -5z m111
-21 c19 -18 25 -35 25 -65 0 -44 -33 -90 -65 -90 -32 0 -65 46 -65 90 0 44 33
90 65 90 9 0 27 -11 40 -25z"/>
<path d="M10306 8299 c-51 -40 -28 -91 51 -112 52 -14 71 -38 47 -61 -23 -23
-51 -20 -81 10 -14 14 -31 23 -39 20 -35 -13 10 -66 62 -73 122 -16 154 96 37
130 -58 17 -77 42 -49 63 27 19 42 18 66 -6 23 -23 50 -26 50 -6 0 23 -50 56
-85 56 -18 0 -44 -9 -59 -21z"/>
<path d="M10560 8313 c-24 -9 -50 -35 -50 -50 0 -19 27 -16 50 7 26 26 55 25
74 -2 26 -37 20 -48 -24 -48 -82 0 -130 -53 -95 -106 19 -30 60 -40 99 -25 20
7 32 8 34 1 2 -5 13 -10 24 -10 19 0 20 5 16 101 -3 92 -5 103 -27 120 -22 18
-69 24 -101 12z"/>
<path d="M11026 8299 c-51 -40 -28 -91 51 -112 52 -14 71 -38 47 -61 -23 -23
-51 -20 -81 10 -14 14 -31 23 -39 20 -35 -13 10 -66 62 -73 122 -16 154 96 37
130 -58 17 -77 42 -49 63 27 19 42 18 66 -6 23 -23 50 -26 50 -6 0 23 -50 56
-85 56 -18 0 -44 -9 -59 -21z"/>
<path d="M11440 8313 c-24 -9 -50 -35 -50 -50 0 -19 27 -16 50 7 26 26 55 25
74 -2 26 -37 20 -48 -24 -48 -82 0 -130 -53 -95 -106 19 -30 60 -40 99 -25 20
7 32 8 34 1 2 -5 13 -10 24 -10 19 0 20 5 16 101 -3 92 -5 103 -27 120 -22 18
-69 24 -101 12z"/>
<path d="M11671 8306 c-33 -18 -50 -53 -51 -104 0 -77 40 -122 109 -122 35 0
81 35 81 61 0 26 -18 24 -46 -6 -29 -31 -57 -32 -84 -2 -18 18 -21 31 -18 75
5 59 11 68 50 77 26 7 60 -15 70 -46 2 -7 11 -10 21 -6 16 6 16 9 2 37 -26 49
-82 65 -134 36z"/>
<path d="M12034 8286 c-30 -30 -34 -40 -34 -86 0 -46 4 -56 34 -86 45 -45 92
-47 138 -5 31 27 33 34 33 91 0 57 -2 64 -33 91 -46 42 -93 40 -138 -5z m111
-21 c19 -18 25 -35 25 -65 0 -46 -34 -90 -69 -90 -30 0 -61 47 -61 92 0 42 34
88 65 88 9 0 27 -11 40 -25z"/>
<path d="M12563 8310 c-19 -8 -43 -38 -43 -54 0 -14 32 -4 50 14 34 34 74 24
85 -23 7 -26 6 -27 -34 -27 -83 0 -131 -53 -96 -106 19 -30 60 -40 99 -25 20
7 32 8 34 1 2 -5 13 -10 24 -10 19 0 20 5 16 101 -3 92 -5 103 -27 120 -24 20
-71 24 -108 9z"/>
<path d="M12760 8200 c0 -113 1 -120 20 -120 17 0 20 8 22 92 3 86 5 93 27
104 14 7 33 9 45 5 19 -8 21 -17 24 -105 3 -95 3 -96 27 -96 25 0 25 1 25 88
0 96 7 112 52 112 38 0 48 -24 48 -119 0 -74 2 -81 20 -81 19 0 20 7 20 95 0
88 -2 98 -25 120 -28 29 -70 32 -103 9 -20 -14 -24 -14 -44 0 -12 9 -34 16
-48 16 -14 0 -36 -7 -48 -16 -20 -14 -22 -14 -22 0 0 9 -9 16 -20 16 -19 0
-20 -7 -20 -120z"/>
<path d="M13174 8286 c-29 -29 -34 -41 -34 -80 0 -79 39 -126 106 -126 29 0
84 26 84 40 0 18 -20 21 -42 6 -12 -9 -30 -16 -39 -16 -25 0 -69 39 -69 61 0
17 8 19 81 19 l82 0 -7 31 c-3 17 -6 35 -6 39 0 4 -12 19 -26 34 -39 38 -86
36 -130 -8z"/>
<path d="M13380 8200 c0 -113 1 -120 20 -120 19 0 20 7 20 90 0 83 2 91 24
105 18 12 30 13 50 6 26 -10 26 -12 26 -106 0 -90 1 -95 21 -95 20 0 21 4 17
106 -3 91 -6 108 -22 120 -26 18 -66 18 -94 -2 -20 -14 -22 -14 -22 0 0 9 -9
16 -20 16 -19 0 -20 -7 -20 -120z"/>
<path d="M13794 8286 c-29 -29 -34 -41 -34 -79 0 -25 4 -57 10 -71 11 -29 57
-56 95 -56 30 0 85 26 85 40 0 18 -20 21 -42 6 -12 -9 -30 -16 -39 -16 -25 0
-69 39 -69 61 0 17 8 19 80 19 87 0 87 0 69 62 -7 26 -19 43 -39 53 -46 24
-78 19 -116 -19z"/>
<path d="M14144 8286 c-30 -30 -34 -40 -34 -87 1 -75 40 -119 105 -119 30 0
85 26 85 40 0 18 -20 21 -42 6 -12 -9 -30 -16 -39 -16 -25 0 -69 39 -69 61 0
17 8 19 81 19 79 0 81 1 75 23 -3 12 -6 29 -6 38 0 9 -12 28 -26 43 -39 38
-86 36 -130 -8z"/>
<path d="M14611 8306 c-33 -18 -50 -53 -51 -104 0 -56 21 -96 60 -112 54 -22
130 8 130 52 0 25 -18 23 -46 -7 -47 -51 -104 -15 -104 64 0 25 6 53 13 62 28
38 89 31 102 -11 8 -26 35 -26 35 0 0 55 -82 88 -139 56z"/>
<path d="M14800 8220 c0 -87 3 -103 20 -120 22 -22 70 -26 101 -10 13 7 19 7
19 0 0 -5 9 -10 20 -10 19 0 20 7 20 120 0 113 -1 120 -20 120 -19 0 -20 -7
-20 -90 0 -82 -2 -91 -22 -104 -13 -8 -30 -14 -38 -13 -36 6 -40 18 -40 113 0
87 -1 94 -20 94 -19 0 -20 -7 -20 -100z"/>
<path d="M15226 8299 c-51 -40 -28 -91 51 -112 52 -14 71 -38 47 -61 -22 -23
-51 -20 -80 9 -26 27 -39 31 -48 16 -19 -30 39 -71 99 -71 37 0 85 35 85 62 0
28 -32 57 -81 73 -56 19 -72 41 -44 61 26 19 42 17 65 -6 23 -23 50 -26 50 -6
0 23 -50 56 -85 56 -18 0 -44 -9 -59 -21z"/>
<path d="M15454 8286 c-30 -30 -34 -40 -34 -86 0 -46 4 -56 34 -86 45 -45 92
-47 138 -5 31 27 33 34 33 91 0 57 -2 64 -33 91 -46 42 -93 40 -138 -5z m111
-21 c46 -45 20 -155 -36 -155 -35 0 -69 44 -69 90 0 44 33 90 65 90 9 0 27
-11 40 -25z"/>
<path d="M13330 7520 l0 -190 40 0 40 0 0 99 c0 81 3 100 16 105 24 9 31 8 48
-10 12 -12 16 -37 16 -105 l0 -89 40 0 40 0 0 90 c0 98 -15 151 -48 169 -28
15 -52 14 -84 -3 l-28 -15 0 70 0 69 -40 0 -40 0 0 -190z"/>
<path d="M9270 7511 l0 -181 40 0 39 0 3 63 3 62 60 5 c76 6 111 28 126 80 10
34 10 46 -4 75 -26 56 -57 69 -169 73 l-98 4 0 -181z"/>
<path d="M12580 7511 l0 -181 40 0 39 0 3 63 3 62 66 5 c77 6 103 23 120 80 9
28 8 44 -4 72 -24 58 -56 72 -169 76 l-98 4 0 -181z"/>
<path d="M13180 7625 l0 -35 -64 0 -64 0 -17 -65 c-10 -36 -21 -68 -25 -70 -3
-2 -15 27 -24 66 l-18 69 -44 0 -43 0 46 -134 c25 -74 43 -142 39 -151 -3 -9
-15 -19 -26 -22 -14 -4 -20 -14 -20 -34 0 -25 4 -29 28 -29 59 0 80 37 157
270 23 70 29 80 36 62 5 -12 15 -22 24 -22 12 0 15 -15 15 -84 0 -76 2 -86 22
-100 12 -9 39 -16 60 -16 35 0 38 2 38 29 0 20 -6 30 -20 34 -17 4 -20 14 -20
71 0 59 2 66 20 66 16 0 20 7 20 30 0 23 -4 30 -20 30 -16 0 -20 7 -20 35 0
34 -1 35 -40 35 -39 0 -40 -1 -40 -35z"/>
<path d="M9682 7578 c-19 -19 -22 -20 -22 -5 0 13 -9 17 -35 17 l-35 0 0 -130
0 -130 40 0 39 0 3 93 3 92 33 3 c30 3 32 6 32 43 0 46 -22 53 -58 17z"/>
<path d="M9833 7586 c-46 -21 -67 -60 -67 -121 0 -64 22 -101 72 -122 81 -34
162 10 176 94 9 50 -11 110 -45 135 -34 26 -96 32 -136 14z"/>
<path d="M10115 7591 c-43 -18 -59 -50 -63 -122 -4 -67 -4 -69 31 -104 36 -36
71 -44 108 -25 16 9 19 7 19 -8 0 -10 -5 -23 -12 -30 -16 -16 -71 -15 -87 1
-10 10 -15 8 -27 -8 -20 -27 -14 -38 32 -54 53 -19 109 -7 146 29 l28 28 0
146 0 146 -35 0 c-19 0 -35 -5 -35 -11 0 -5 -10 -3 -22 5 -24 17 -52 19 -83 7z"/>
<path d="M10442 7578 c-19 -19 -22 -20 -22 -5 0 13 -9 17 -35 17 l-35 0 0
-130 0 -130 40 0 39 0 3 93 3 92 33 3 c30 3 32 6 32 43 0 46 -22 53 -58 17z"/>
<path d="M10583 7585 c-30 -13 -53 -41 -53 -64 0 -18 77 -13 84 5 9 23 50 14
54 -12 3 -18 -3 -22 -42 -26 -88 -10 -128 -63 -89 -116 28 -37 66 -49 106 -34
21 8 33 9 35 2 2 -5 20 -10 41 -10 l37 0 -3 93 c-5 123 -8 134 -46 157 -37 23
-79 25 -124 5z"/>
<path d="M10900 7583 c-17 -12 -25 -13 -28 -5 -2 7 -21 12 -43 12 l-39 0 0
-130 0 -130 40 0 40 0 0 89 c0 94 14 129 47 117 8 -3 17 -6 19 -6 2 0 4 -45 4
-100 l0 -100 40 0 40 0 0 89 c0 94 13 126 49 119 13 -3 16 -20 19 -106 l3
-102 39 0 40 0 0 110 c0 104 -1 112 -25 135 -29 30 -74 33 -106 6 -23 -19 -24
-19 -48 0 -29 23 -59 24 -91 2z"/>
<path d="M11273 7585 c-30 -13 -53 -41 -53 -64 0 -6 18 -11 40 -11 30 0 40 4
40 16 0 25 54 14 58 -12 3 -18 -3 -22 -42 -26 -88 -10 -128 -63 -89 -116 28
-37 66 -49 106 -34 21 8 33 9 35 2 2 -5 20 -10 40 -10 l37 0 -3 92 c-4 123 -7
135 -45 158 -37 23 -79 25 -124 5z"/>
<path d="M11553 7585 c-39 -17 -60 -48 -67 -100 -13 -90 49 -161 133 -152 46
5 87 36 93 72 5 30 -58 35 -79 6 -18 -27 -38 -27 -57 1 -30 42 -10 128 29 128
8 0 20 -9 27 -20 9 -14 24 -20 50 -20 44 0 45 3 18 48 -31 51 -85 64 -147 37z"/>
<path d="M11953 7585 c-45 -19 -67 -58 -67 -120 0 -63 22 -101 69 -121 47 -19
84 -18 122 6 42 25 56 53 57 115 0 63 -21 101 -69 121 -42 17 -71 17 -112 -1z"/>
<path d="M12278 7584 c-16 -8 -28 -10 -28 -4 0 5 -18 10 -40 10 l-40 0 0 -130
0 -130 40 0 40 0 0 93 c0 96 8 117 42 117 28 0 38 -33 38 -124 l0 -86 40 0 40
0 0 94 c0 108 -11 149 -46 165 -33 14 -53 13 -86 -5z"/>
<path d="M13673 7586 c-79 -36 -95 -163 -28 -226 21 -20 37 -24 86 -25 56 0
63 3 89 31 52 59 46 164 -11 206 -34 26 -96 32 -136 14z"/>
<path d="M13996 7579 c-21 -17 -26 -18 -26 -5 0 12 -10 16 -40 16 l-40 0 0
-130 0 -130 40 0 40 0 0 93 c0 91 8 117 36 117 33 0 44 -31 44 -121 l0 -89 40
0 40 0 0 94 c0 108 -11 149 -46 165 -36 16 -58 14 -88 -10z"/>
<path d="M11760 7460 l0 -130 40 0 40 0 0 130 0 130 -40 0 -40 0 0 -130z"/>
<path d="M5570 6944 c0 -50 -2 -55 -17 -49 -61 26 -107 11 -130 -42 -18 -44
-13 -111 11 -147 19 -30 74 -43 107 -25 17 9 24 9 27 0 2 -6 12 -11 23 -11 18
0 19 9 19 165 0 158 -1 165 -20 165 -18 0 -20 -7 -20 -56z m-12 -86 c7 -6 12
-34 12 -68 0 -64 -13 -82 -57 -82 -61 0 -87 99 -38 148 26 25 52 26 83 2z"/>
<path d="M6870 6835 c0 -157 1 -165 20 -165 17 0 20 8 22 92 3 86 5 93 27 104
14 7 33 9 45 5 19 -8 21 -17 24 -105 2 -88 4 -96 22 -96 19 0 20 7 20 98 0 90
-2 100 -23 120 -27 26 -64 28 -95 6 l-22 -15 0 60 c0 54 -2 61 -20 61 -19 0
-20 -7 -20 -165z"/>
<path d="M8250 6944 c0 -50 -2 -55 -17 -48 -36 17 -95 9 -114 -15 -39 -48 -36
-145 6 -187 27 -27 82 -33 104 -11 11 10 14 10 18 0 3 -7 13 -13 24 -13 18 0
19 9 19 165 0 158 -1 165 -20 165 -18 0 -20 -7 -20 -56z m-12 -86 c18 -18 15
-123 -3 -138 -24 -20 -67 -15 -87 10 -22 27 -23 88 -2 118 17 25 71 31 92 10z"/>
<path d="M9940 6944 c0 -50 -2 -55 -17 -49 -83 35 -143 -12 -143 -110 0 -79
60 -131 124 -107 20 8 32 9 34 2 2 -5 12 -10 23 -10 18 0 19 9 19 165 0 158
-1 165 -20 165 -18 0 -20 -7 -20 -56z m-12 -87 c18 -14 16 -121 -3 -137 -43
-36 -105 3 -105 67 0 75 55 111 108 70z"/>
<path d="M10540 6944 c0 -50 -2 -55 -17 -48 -36 17 -95 9 -114 -15 -39 -48
-36 -145 6 -187 27 -27 82 -33 104 -11 11 10 14 10 18 0 3 -7 13 -13 24 -13
18 0 19 9 19 165 0 158 -1 165 -20 165 -18 0 -20 -7 -20 -56z m-12 -87 c18
-14 16 -121 -3 -137 -43 -36 -105 3 -105 67 0 75 55 111 108 70z"/>
<path d="M11520 6944 c0 -50 -2 -55 -17 -49 -60 25 -107 11 -128 -40 -35 -82
-5 -168 61 -181 24 -4 44 -2 58 6 14 9 21 10 24 1 2 -6 12 -11 23 -11 18 0 19
9 19 165 0 158 -1 165 -20 165 -18 0 -20 -7 -20 -56z m-12 -87 c18 -14 16
-121 -3 -137 -43 -36 -105 3 -105 67 0 75 55 111 108 70z"/>
<path d="M12130 6944 c0 -50 -2 -55 -17 -49 -61 26 -107 11 -130 -42 -18 -44
-13 -111 11 -147 19 -30 74 -43 107 -25 17 9 24 9 27 0 2 -6 12 -11 23 -11 18
0 19 9 19 165 0 158 -1 165 -20 165 -18 0 -20 -7 -20 -56z m-12 -86 c7 -6 12
-34 12 -68 0 -64 -13 -82 -57 -82 -61 0 -87 99 -38 148 26 25 52 26 83 2z"/>
<path d="M15580 6835 c0 -158 1 -165 20 -165 11 0 20 7 20 16 0 14 2 14 22 0
57 -40 121 -2 133 77 17 110 -47 171 -137 132 -16 -6 -18 -1 -18 49 0 49 -2
56 -20 56 -19 0 -20 -7 -20 -165z m147 4 c39 -75 -20 -165 -82 -125 -24 16
-26 22 -23 79 3 53 6 63 27 73 30 15 62 4 78 -27z"/>
<path d="M16470 6944 c0 -50 -2 -55 -17 -48 -36 17 -95 9 -114 -15 -39 -48
-36 -145 6 -187 27 -27 82 -33 104 -11 11 10 14 10 18 0 3 -7 13 -13 24 -13
18 0 19 9 19 165 0 158 -1 165 -20 165 -18 0 -20 -7 -20 -56z m-22 -80 c18
-13 22 -25 22 -73 0 -65 -13 -83 -57 -83 -72 0 -88 134 -20 162 30 12 30 12
55 -6z"/>
<path d="M6075 6971 c-31 -11 -51 -24 -53 -36 -3 -14 1 -17 21 -11 14 3 32 9
41 12 14 5 16 -10 16 -130 0 -129 1 -136 20 -136 19 0 20 7 20 160 0 88 -3
160 -7 159 -5 0 -30 -8 -58 -18z"/>
<path d="M6304 6981 c-24 -11 -54 -48 -54 -68 0 -22 36 -14 48 11 12 28 54 41
82 26 14 -8 20 -21 20 -45 0 -38 -20 -55 -64 -55 -42 0 -31 -27 14 -34 30 -5
44 -13 52 -31 25 -56 -35 -105 -87 -71 -14 9 -25 23 -25 31 0 8 -9 15 -20 15
-30 0 -25 -34 11 -64 41 -34 97 -35 136 -2 37 32 40 98 5 125 l-23 17 20 19
c26 23 28 75 3 105 -19 24 -84 35 -118 21z"/>
<path d="M6547 6970 c-30 -24 -47 -75 -47 -140 0 -25 5 -62 10 -82 21 -74 101
-102 157 -54 26 23 28 30 32 116 3 98 -7 141 -43 165 -29 21 -79 18 -109 -5z
m93 -30 c17 -17 20 -33 20 -99 0 -44 -4 -91 -9 -104 -16 -42 -70 -46 -91 -7
-5 10 -10 57 -11 106 -1 80 1 89 21 106 29 23 45 23 70 -2z"/>
<path d="M16964 6980 c-46 -18 -73 -90 -35 -90 12 0 21 9 25 25 13 50 88 56
106 9 14 -35 0 -62 -79 -152 -39 -44 -71 -85 -71 -91 0 -7 35 -11 105 -11 85
0 105 3 105 15 0 11 -18 15 -77 17 l-78 3 58 63 c65 71 90 120 81 157 -13 52
-81 79 -140 55z"/>
<path d="M17207 6970 c-30 -24 -47 -75 -47 -140 0 -65 17 -116 47 -140 35 -27
85 -26 119 3 24 21 27 32 32 99 6 97 -3 144 -33 174 -30 30 -82 32 -118 4z
m93 -30 c17 -17 20 -33 20 -99 0 -44 -4 -91 -9 -104 -16 -42 -70 -46 -91 -7
-5 10 -10 57 -11 106 -1 80 1 89 21 106 29 23 45 23 70 -2z"/>
<path d="M17429 6961 c-34 -34 -39 -71 -10 -71 12 0 21 9 25 25 13 50 88 56
106 9 14 -35 0 -62 -79 -152 -39 -44 -71 -85 -71 -91 0 -7 35 -11 105 -11 85
0 105 3 105 15 0 11 -18 15 -77 17 l-78 3 58 63 c91 99 106 158 50 202 -39 31
-98 27 -134 -9z"/>
<path d="M17704 6980 c-46 -18 -73 -90 -35 -90 12 0 21 9 25 25 13 50 88 56
106 9 14 -36 -1 -63 -80 -153 -38 -44 -70 -85 -70 -90 0 -7 38 -11 105 -11 85
0 105 3 105 15 0 11 -18 15 -77 17 l-78 3 58 63 c65 71 90 120 81 157 -13 52
-81 79 -140 55z"/>
<path d="M10990 6940 c0 -23 -4 -30 -20 -30 -11 0 -20 -7 -20 -15 0 -8 9 -15
20 -15 18 0 20 -7 20 -83 0 -97 14 -127 61 -127 35 0 39 21 7 35 -21 9 -23 18
-26 92 -3 77 -2 82 19 85 33 4 36 28 5 28 -22 0 -26 4 -26 30 0 23 -4 30 -20
30 -16 0 -20 -7 -20 -30z"/>
<path d="M5694 6876 c-29 -29 -34 -41 -34 -80 0 -79 39 -126 106 -126 29 0 84
26 84 40 0 18 -20 21 -42 6 -12 -9 -30 -16 -39 -16 -25 0 -69 39 -69 61 0 17
8 19 81 19 l81 0 -7 36 c-8 47 -23 70 -52 83 -42 19 -73 13 -109 -23z"/>
<path d="M7134 6876 c-30 -30 -34 -40 -34 -86 0 -46 4 -56 34 -86 45 -45 92
-47 138 -5 31 27 33 34 33 91 0 57 -2 64 -33 91 -46 42 -93 40 -138 -5z m111
-21 c19 -18 25 -35 25 -65 0 -44 -33 -90 -65 -90 -32 0 -65 46 -65 90 0 44 33
90 65 90 9 0 27 -11 40 -25z"/>
<path d="M7570 6903 c-24 -9 -50 -35 -50 -50 0 -19 27 -16 50 7 26 26 55 25
74 -2 27 -38 20 -48 -30 -48 -37 0 -51 -5 -75 -29 -35 -36 -36 -54 -4 -86 26
-27 63 -32 98 -14 16 9 22 9 25 0 2 -6 12 -11 23 -11 17 0 19 8 19 95 0 88 -2
98 -25 120 -23 24 -68 32 -105 18z"/>
<path d="M7786 6889 c-29 -23 -34 -59 -11 -82 8 -9 37 -23 64 -32 54 -18 68
-36 45 -60 -23 -22 -51 -18 -81 11 -14 14 -31 23 -39 20 -18 -7 -17 -16 4 -44
36 -46 141 -38 164 12 16 37 -10 70 -72 91 -57 19 -73 41 -45 61 26 19 42 17
65 -6 23 -23 50 -26 50 -6 0 23 -50 56 -85 56 -18 0 -44 -9 -59 -21z"/>
<path d="M8374 6876 c-29 -29 -34 -41 -34 -80 0 -79 39 -126 106 -126 29 0 84
26 84 40 0 18 -20 21 -42 6 -12 -9 -30 -16 -39 -16 -25 0 -69 39 -69 61 0 17
8 19 81 19 l81 0 -7 36 c-8 47 -23 70 -52 83 -42 19 -73 13 -109 -23z"/>
<path d="M8731 6896 c-33 -18 -50 -53 -51 -104 0 -56 21 -96 60 -112 54 -22
130 8 130 52 0 25 -14 23 -44 -7 -31 -31 -59 -32 -86 -3 -22 24 -27 86 -10
118 25 46 83 49 100 5 6 -17 14 -22 29 -18 19 5 19 7 6 34 -26 48 -83 63 -134
35z"/>
<path d="M8930 6810 c0 -87 3 -103 20 -120 22 -22 70 -26 101 -10 13 7 19 7
19 0 0 -5 9 -10 20 -10 19 0 20 7 20 120 0 113 -1 120 -20 120 -17 0 -20 -8
-22 -92 -3 -86 -5 -93 -27 -104 -14 -7 -33 -9 -45 -5 -19 8 -21 17 -24 105 -2
88 -4 96 -22 96 -19 0 -20 -7 -20 -100z"/>
<path d="M9346 6889 c-51 -40 -28 -91 51 -112 52 -14 71 -38 47 -61 -23 -23
-51 -20 -81 10 -24 24 -53 27 -53 4 0 -16 38 -49 65 -56 42 -10 94 4 112 33
25 38 3 71 -67 98 -62 23 -75 48 -37 66 26 12 67 -1 67 -21 0 -6 9 -10 20 -10
11 0 20 6 20 14 0 23 -50 56 -85 56 -18 0 -44 -9 -59 -21z"/>
<path d="M9575 6885 c-14 -13 -25 -29 -25 -35 0 -17 29 -11 50 10 26 26 55 25
74 -2 26 -36 20 -48 -24 -48 -53 0 -86 -17 -101 -51 -23 -57 40 -105 105 -80
20 7 32 8 34 1 2 -5 13 -10 24 -10 19 0 20 5 16 101 -3 92 -5 103 -27 120 -34
28 -96 25 -126 -6z"/>
<path d="M10083 6900 c-19 -8 -43 -38 -43 -54 0 -14 32 -4 50 14 26 26 55 25
74 -2 26 -36 20 -48 -24 -48 -53 0 -86 -17 -101 -51 -23 -57 40 -105 105 -80
20 7 32 8 34 1 2 -5 13 -10 24 -10 19 0 20 5 16 101 -3 92 -5 103 -27 120 -24
20 -71 24 -108 9z"/>
<path d="M10791 6896 c-33 -18 -50 -53 -51 -104 0 -56 21 -96 60 -112 54 -22
130 8 130 52 0 25 -18 23 -46 -7 -13 -14 -32 -25 -43 -25 -59 0 -84 108 -36
155 13 14 31 25 40 25 16 0 50 -30 57 -51 2 -7 11 -10 21 -6 16 6 16 9 2 37
-26 49 -82 65 -134 36z"/>
<path d="M11173 6900 c-19 -8 -43 -38 -43 -54 0 -14 32 -4 50 14 26 26 55 25
74 -2 26 -36 20 -48 -24 -48 -67 0 -96 -21 -106 -79 -4 -21 42 -61 71 -61 15
0 36 5 48 11 16 9 22 9 25 0 2 -6 13 -11 24 -11 19 0 20 5 16 101 -3 92 -5
103 -27 120 -24 20 -71 24 -108 9z"/>
<path d="M11644 6876 c-30 -30 -34 -40 -34 -86 0 -46 4 -56 34 -86 45 -45 92
-47 138 -5 31 27 33 34 33 91 0 57 -2 64 -33 91 -46 42 -93 40 -138 -5z m111
-21 c19 -18 25 -35 25 -65 0 -44 -33 -90 -65 -90 -32 0 -65 46 -65 90 0 44 33
90 65 90 9 0 27 -11 40 -25z"/>
<path d="M12254 6876 c-29 -29 -34 -41 -34 -80 0 -79 39 -126 106 -126 29 0
84 26 84 40 0 18 -20 21 -42 6 -12 -9 -30 -16 -39 -16 -25 0 -69 39 -69 61 0
17 8 19 81 19 l81 0 -7 36 c-8 47 -23 70 -52 83 -42 19 -73 13 -109 -23z"/>
<path d="M12580 6790 c0 -113 1 -120 20 -120 17 0 20 8 22 92 3 86 5 93 27
104 14 7 33 9 45 5 19 -8 21 -17 24 -105 3 -95 3 -96 27 -96 25 0 25 1 25 88
0 48 4 93 9 101 13 20 62 17 78 -5 8 -11 13 -48 13 -101 0 -76 2 -83 20 -83
19 0 20 7 20 94 0 79 -3 97 -21 120 -24 30 -72 35 -107 10 -20 -14 -24 -14
-44 0 -12 9 -34 16 -48 16 -14 0 -36 -7 -48 -16 -20 -14 -22 -14 -22 0 0 9 -9
16 -20 16 -19 0 -20 -7 -20 -120z"/>
<path d="M13013 6900 c-19 -8 -43 -38 -43 -54 0 -14 32 -4 50 14 26 26 55 25
74 -2 26 -36 20 -48 -24 -48 -67 0 -96 -21 -106 -79 -4 -21 42 -61 71 -61 15
0 36 5 48 11 16 9 22 9 25 0 2 -6 13 -11 24 -11 19 0 20 5 16 101 -3 92 -5
103 -27 120 -24 20 -71 24 -108 9z"/>
<path d="M13190 6903 c0 -5 18 -57 40 -117 35 -96 38 -112 27 -135 -7 -14 -22
-27 -35 -29 -31 -5 -30 -42 1 -42 39 0 62 38 111 183 25 76 46 140 46 142 0 3
-9 5 -19 5 -16 0 -25 -17 -47 -87 l-27 -88 -29 88 c-24 69 -34 87 -49 87 -10
0 -19 -3 -19 -7z"/>
<path d="M13444 6876 c-30 -30 -34 -40 -34 -86 0 -46 4 -56 34 -86 45 -45 92
-47 138 -5 31 27 33 34 33 91 0 57 -2 64 -33 91 -46 42 -93 40 -138 -5z m111
-21 c19 -18 25 -35 25 -65 0 -44 -33 -90 -65 -90 -32 0 -65 46 -65 90 0 44 33
90 65 90 9 0 27 -11 40 -25z"/>
<path d="M13823 6900 c-19 -8 -43 -38 -43 -54 0 -14 32 -4 50 14 26 26 55 25
74 -2 26 -36 20 -48 -24 -48 -53 0 -86 -17 -101 -51 -23 -57 40 -105 105 -80
20 7 32 8 34 1 2 -5 13 -10 24 -10 19 0 20 5 16 101 -3 92 -5 103 -27 120 -24
20 -71 24 -108 9z"/>
<path d="M14130 6790 c0 -113 1 -120 20 -120 17 0 20 8 22 92 3 86 5 93 27
104 14 7 33 9 45 5 19 -8 21 -17 24 -105 2 -88 4 -96 22 -96 19 0 20 7 20 100
0 87 -3 103 -20 120 -24 24 -67 26 -98 4 -20 -14 -22 -14 -22 0 0 9 -9 16 -20
16 -19 0 -20 -7 -20 -120z"/>
<path d="M14404 6876 c-30 -30 -34 -40 -34 -86 0 -46 4 -56 34 -86 45 -45 92
-47 138 -5 31 27 33 34 33 91 0 57 -2 64 -33 91 -46 42 -93 40 -138 -5z m111
-21 c19 -18 25 -35 25 -65 0 -44 -33 -90 -65 -90 -32 0 -65 46 -65 90 0 44 33
90 65 90 9 0 27 -11 40 -25z"/>
<path d="M14610 6903 c0 -5 18 -57 39 -118 57 -161 63 -156 147 107 4 13 0 18
-14 18 -16 0 -25 -18 -48 -92 l-29 -91 -29 91 c-23 71 -34 92 -48 92 -10 0
-18 -3 -18 -7z"/>
<path d="M14974 6876 c-29 -29 -34 -41 -34 -80 0 -79 39 -126 106 -126 29 0
84 26 84 40 0 18 -20 21 -42 6 -12 -9 -30 -16 -39 -16 -25 0 -69 39 -69 61 0
17 8 19 81 19 l81 0 -7 36 c-8 47 -23 70 -52 83 -42 19 -73 13 -109 -23z"/>
<path d="M15190 6790 c0 -113 1 -120 20 -120 18 0 20 7 20 89 0 97 8 114 56
114 42 0 48 -15 45 -113 l-2 -90 25 0 c26 0 26 0 26 88 0 48 4 93 9 101 13 20
62 17 78 -5 8 -11 13 -48 13 -101 0 -76 2 -83 20 -83 19 0 20 7 20 94 0 79 -3
97 -21 120 -24 30 -72 35 -107 10 -20 -14 -24 -14 -44 0 -12 9 -34 16 -48 16
-14 0 -36 -7 -48 -16 -20 -14 -22 -14 -22 0 0 9 -9 16 -20 16 -19 0 -20 -7
-20 -120z"/>
<path d="M16004 6876 c-29 -29 -34 -41 -34 -80 0 -79 39 -126 106 -126 29 0
84 26 84 40 0 18 -20 21 -42 6 -12 -9 -30 -16 -39 -16 -25 0 -69 39 -69 61 0
17 8 19 81 19 l82 0 -7 31 c-3 17 -6 35 -6 39 0 4 -12 19 -26 34 -39 38 -86
36 -130 -8z"/>
<path d="M16594 6876 c-29 -29 -34 -41 -34 -80 0 -79 39 -126 106 -126 29 0
84 26 84 40 0 18 -20 21 -42 6 -12 -9 -30 -16 -39 -16 -25 0 -69 39 -69 61 0
17 8 19 81 19 l81 0 -7 33 c-9 48 -25 74 -52 86 -42 19 -73 13 -109 -23z"/>
<path d="M10360 1690 l0 -250 40 0 40 0 0 250 0 250 -40 0 -40 0 0 -250z"/>
<path d="M10530 1895 l0 -45 56 0 c34 0 53 -4 49 -10 -3 -5 3 -10 14 -10 20 0
21 -5 21 -195 l0 -195 40 0 40 0 0 195 c0 160 2 195 14 195 8 0 17 7 20 16 4
11 13 14 28 11 11 -3 34 -3 49 0 26 5 29 10 29 44 l0 39 -180 0 -180 0 0 -45z"/>
<path d="M6470 1625 c0 -8 -7 -15 -15 -15 -8 0 -15 -7 -15 -15 0 -8 -4 -15
-10 -15 -5 0 -10 -25 -10 -55 0 -30 5 -55 10 -55 6 0 10 -6 10 -14 0 -8 14
-20 30 -28 17 -7 30 -19 30 -25 0 -8 15 -13 40 -13 29 0 40 4 40 15 0 10 10
15 30 15 17 0 30 5 30 10 0 6 7 10 15 10 12 0 15 14 15 70 0 56 -3 70 -15 70
-8 0 -15 6 -15 13 0 7 -9 20 -20 30 -27 23 -150 25 -150 2z"/>
<path d="M8000 1625 c0 -8 -7 -15 -15 -15 -8 0 -15 -7 -15 -15 0 -8 -7 -15
-15 -15 -12 0 -15 -14 -15 -63 0 -70 18 -97 65 -97 16 0 25 -6 25 -15 0 -11
11 -15 40 -15 29 0 40 4 40 15 0 8 7 15 16 15 18 0 44 23 44 39 0 6 5 11 10
11 6 0 10 25 10 55 0 30 -4 55 -10 55 -5 0 -10 7 -10 15 0 8 -7 15 -15 15 -8
0 -15 7 -15 15 0 12 -14 15 -70 15 -56 0 -70 -3 -70 -15z"/>
<path d="M9220 1625 c0 -8 -7 -15 -15 -15 -8 0 -15 -7 -15 -15 0 -8 -4 -15
-10 -15 -5 0 -10 -24 -10 -54 0 -30 5 -58 10 -61 6 -3 10 -15 10 -26 0 -14 7
-19 30 -19 20 0 30 -5 30 -15 0 -11 11 -15 40 -15 28 0 40 4 40 14 0 8 10 16
23 18 12 2 26 13 32 26 5 12 15 22 22 22 9 0 13 17 13 55 0 42 -3 55 -15 55
-8 0 -15 7 -15 15 0 8 -7 15 -15 15 -8 0 -15 7 -15 15 0 12 -14 15 -70 15 -56
0 -70 -3 -70 -15z"/>
</g>
</svg>
